<svg width="35" height="35" viewBox="0 0 35 35" fill="none" xmlns="http://www.w3.org/2000/svg">
<rect width="35" height="35" rx="17.5" fill="white"/>
<g clip-path="url(#clip0)">
<path d="M17.5006 0C7.83592 0 0.000976562 7.83518 0.000976562 17.4998C0.000976562 27.1642 7.83592 35 17.5006 35C27.1652 35 35.0007 27.1642 35.0007 17.4998C35.0007 7.83494 27.1652 0 17.5006 0ZM17.5539 25.7559V25.7557H17.447H9.97188C9.97188 20.2891 14.773 20.2904 15.8384 18.861L15.9603 18.2092C14.4635 17.4506 13.4068 15.6217 13.4068 13.4827C13.4068 10.6647 15.2399 8.3799 17.5006 8.3799C19.7612 8.3799 21.5943 10.6647 21.5943 13.4827C21.5943 15.6035 20.5564 17.421 19.0795 18.1915L19.2184 18.9323C20.3873 20.2924 25.0287 20.3811 25.0287 25.7559H17.5539Z" fill="#15FEF9"/>
</g>
<defs>
<clipPath id="clip0">
<rect width="35" height="35" fill="white"/>
</clipPath>
</defs>
</svg>
