<svg width="35" height="35" viewBox="0 0 35 35" fill="none" xmlns="http://www.w3.org/2000/svg">
<rect width="35" height="35" rx="17.5" fill="white"/>
<path d="M16.2654 11.2229C13.6202 11.2229 11.4755 13.3683 11.4755 16.0136C11.4755 18.6591 13.6202 20.8039 16.2654 20.8039C17.1341 20.8039 17.9466 20.5694 18.6489 20.1648C18.9552 19.9885 19.2393 19.7788 19.4977 19.5415C19.507 19.533 19.5167 19.5246 19.5258 19.5161C19.6081 19.4392 19.6883 19.3594 19.7652 19.277C19.7694 19.2725 19.7734 19.2679 19.7776 19.2634C20.0989 18.9161 20.3695 18.5205 20.5779 18.0888C20.8808 17.4603 21.0557 16.7583 21.0557 16.0136C21.0557 13.3683 18.9112 11.2229 16.2654 11.2229ZM18.5802 17.1471H13.9504C13.4489 17.1471 13.0426 16.7408 13.0426 16.2393C13.0426 15.7379 13.4489 15.3315 13.9504 15.3315H18.5802C19.0817 15.3315 19.488 15.7379 19.488 16.2393C19.488 16.7408 19.0817 17.1471 18.5802 17.1471Z" fill="#15FEF9"/>
<rect x="13" y="14" width="7" height="4" fill="#15FEF9"/>
<path d="M17.4997 0C7.835 0 0 7.83523 0 17.4997C0 27.1642 7.835 35 17.4997 35C27.1644 35 35 27.1642 35 17.4997C35 7.83523 27.1644 0 17.4997 0ZM26.3014 25.8134C26.0248 26.0906 25.6621 26.2289 25.2992 26.2289C24.9364 26.2289 24.5739 26.0906 24.2967 25.8134L20.3131 21.8295C19.1654 22.6302 17.7707 23.1007 16.265 23.1007C12.351 23.1007 9.17832 19.9278 9.17832 16.0138C9.17832 12.0998 12.351 8.92713 16.265 8.92713C20.179 8.92713 23.3519 12.0998 23.3519 16.0138C23.3519 17.3969 22.9543 18.6866 22.2692 19.7774L26.3013 23.8095C26.8551 24.3624 26.8551 25.2602 26.3014 25.8134Z" fill="#15FEF9"/>
</svg>
