<svg width="45" height="45" viewBox="0 0 45 45" fill="none" xmlns="http://www.w3.org/2000/svg">
<g clip-path="url(#clip0)">
<path d="M45 8.54719C43.3266 9.28125 41.5434 9.76781 39.6844 10.0041C41.5969 8.86219 43.0566 7.06781 43.7428 4.905C41.9597 5.96812 39.9909 6.71906 37.8928 7.13813C36.1997 5.33531 33.7866 4.21875 31.1541 4.21875C26.0466 4.21875 21.9347 8.36438 21.9347 13.4466C21.9347 14.1778 21.9966 14.8809 22.1484 15.5503C14.4788 15.1762 7.69219 11.5003 3.13312 5.90063C2.33719 7.28156 1.87031 8.86219 1.87031 10.5638C1.87031 13.7587 3.51562 16.5909 5.96812 18.2306C4.48594 18.2025 3.03187 17.7722 1.8 17.0944C1.8 17.1225 1.8 17.1591 1.8 17.1956C1.8 21.6787 4.99781 25.4025 9.19125 26.2603C8.44031 26.4656 7.62187 26.5641 6.7725 26.5641C6.18188 26.5641 5.58562 26.5303 5.02594 26.4066C6.22125 30.06 9.61313 32.7459 13.6463 32.8331C10.5075 35.2884 6.52219 36.7678 2.20781 36.7678C1.45125 36.7678 0.725625 36.7341 0 36.6413C4.08656 39.2766 8.92969 40.7812 14.1525 40.7812C31.1287 40.7812 40.41 26.7188 40.41 14.5294C40.41 14.1216 40.3959 13.7278 40.3763 13.3369C42.2072 12.0375 43.7456 10.4147 45 8.54719Z" fill="#03A9F4"/>
</g>
<defs>
<clipPath id="clip0">
<rect width="45" height="45" fill="white"/>
</clipPath>
</defs>
</svg>
