<svg width="27" height="27" viewBox="0 0 27 27" fill="none" xmlns="http://www.w3.org/2000/svg">
<g clip-path="url(#clip0)">
<path d="M13.5005 0C6.04504 0 0.000999451 6.04449 0.000999451 13.4997C0.000999451 20.955 6.04504 27 13.5005 27C20.9561 27 27.0008 20.9553 27.0008 13.4997C27.0008 6.04413 20.9563 0 13.5005 0ZM21.1286 18.161L13.8119 21.7872C13.7139 21.8357 13.6075 21.8603 13.501 21.8603C13.3945 21.8603 13.2879 21.836 13.19 21.7875L5.87341 18.1613C5.52682 17.9895 5.38507 17.5694 5.55688 17.2227C5.72842 16.8765 6.14908 16.7343 6.49522 16.9061L13.5012 20.3783L20.5069 16.9064C20.8528 16.7344 21.2734 16.8763 21.4452 17.2227C21.6169 17.569 21.4752 17.9892 21.1286 18.161ZM21.1286 15.4962L13.8119 19.1224C13.7139 19.1709 13.6075 19.1955 13.501 19.1955C13.3945 19.1955 13.2879 19.1712 13.19 19.1227L5.87341 15.4965C5.52682 15.3247 5.38507 14.9045 5.55688 14.5579C5.72842 14.2115 6.14908 14.07 6.49522 14.2413L13.5012 17.7135L20.5069 14.2416C20.8528 14.0691 21.2734 14.2115 21.4452 14.5579C21.6169 14.9043 21.4752 15.3244 21.1286 15.4962ZM21.1286 12.8315L13.8119 16.4577C13.7139 16.5062 13.6075 16.5308 13.501 16.5308C13.3945 16.5308 13.2879 16.5065 13.19 16.4579L5.87341 12.8315C5.52682 12.6597 5.38507 12.2396 5.55688 11.8931C5.72842 11.5467 6.14908 11.4048 6.49522 11.5766L13.5012 15.0488L20.5069 11.5766C20.8528 11.4051 21.2734 11.5465 21.4452 11.8931C21.6169 12.2396 21.4752 12.6597 21.1286 12.8315ZM21.1286 10.0355L13.8119 13.6616C13.7139 13.7101 13.6075 13.7344 13.501 13.7344C13.3945 13.7344 13.2879 13.7101 13.19 13.6616L5.87341 10.0355C5.63509 9.91746 5.48407 9.67419 5.48407 9.40806C5.48407 9.14193 5.63482 8.89875 5.87341 8.78058L13.1903 5.15412C13.3862 5.05701 13.6163 5.05701 13.8121 5.15412L21.1288 8.78058C21.3671 8.89866 21.5181 9.14193 21.5181 9.40806C21.5181 9.67419 21.3672 9.91719 21.1286 10.0355Z" fill="#08BBB7"/>
</g>
<defs>
<clipPath id="clip0">
<rect width="27" height="27" fill="white"/>
</clipPath>
</defs>
</svg>
