<svg width="16" height="16" viewBox="0 0 16 16" fill="none" xmlns="http://www.w3.org/2000/svg">
<g clip-path="url(#clip0)">
<path d="M15.8983 7.05902C15.7626 6.92336 15.5421 6.92336 15.4064 7.05902L8.00036 14.4651L0.593589 7.05902C0.457934 6.92336 0.237396 6.92336 0.101741 7.05902C-0.0339138 7.19467 -0.0339138 7.41521 0.101741 7.55087L7.75409 15.2032C7.82228 15.2707 7.9113 15.3048 8.00036 15.3048C8.08941 15.3048 8.17844 15.2707 8.24594 15.2032L15.8983 7.55087C16.0339 7.41518 16.0339 7.19467 15.8983 7.05902Z" fill="#15FEF9"/>
<path d="M15.8983 0.797054C15.7626 0.661399 15.5421 0.661399 15.4064 0.797054L8.00036 8.20382L0.593589 0.797771C0.457934 0.662116 0.237396 0.662116 0.101741 0.797771C-0.0339138 0.933426 -0.0339138 1.15396 0.101741 1.28962L7.75409 8.94197C7.82228 9.00944 7.9113 9.04355 8.00036 9.04355C8.08941 9.04355 8.17844 9.00947 8.24594 8.94129L15.8983 1.2889C16.0339 1.15325 16.0339 0.932709 15.8983 0.797054Z" fill="#15FEF9"/>
</g>
<defs>
<clipPath id="clip0">
<rect width="16" height="16" fill="white"/>
</clipPath>
</defs>
</svg>
