<svg width="45" height="45" viewBox="0 0 45 45" fill="none" xmlns="http://www.w3.org/2000/svg">
<path d="M39.375 0H5.625C2.52281 0 0 2.52281 0 5.625V39.375C0 42.4772 2.52281 45 5.625 45H39.375C42.4772 45 45 42.4772 45 39.375V5.625C45 2.52281 42.4772 0 39.375 0Z" fill="#1976D2"/>
<path d="M37.9688 22.5H30.9375V16.875C30.9375 15.3225 32.1975 15.4688 33.75 15.4688H36.5625V8.4375H30.9375C26.2772 8.4375 22.5 12.2147 22.5 16.875V22.5H16.875V29.5312H22.5V45H30.9375V29.5312H35.1562L37.9688 22.5Z" fill="#FAFAFA"/>
</svg>
