<svg width="45" height="45" viewBox="0 0 45 45" fill="none" xmlns="http://www.w3.org/2000/svg">
<path d="M44.8647 13.2234C44.7552 10.8284 44.3748 9.19281 43.8186 7.76184C43.2539 6.26049 42.3681 4.90059 41.2234 3.77655C40.0998 2.63191 38.7395 1.7458 37.2382 1.18069C35.8068 0.624847 34.1716 0.244789 31.7766 0.135956C29.3771 0.0260925 28.6105 0 22.5 0C16.3895 0 15.6229 0.0260925 13.2234 0.135269C10.8284 0.244789 9.19315 0.625191 7.76184 1.18137C6.26049 1.74614 4.90059 2.63191 3.77655 3.77655C2.63191 4.90025 1.7458 6.26015 1.18069 7.7615C0.624847 9.19281 0.244789 10.8284 0.135956 13.2231C0.0260925 15.6229 0 16.3892 0 22.4997C0 28.6105 0.0260925 29.3771 0.135956 31.7766C0.245132 34.1713 0.625534 35.8068 1.18172 37.2382C1.74648 38.7392 2.63226 40.0994 3.77689 41.2231C4.90059 42.3677 6.26083 43.2535 7.76218 43.8183C9.19315 44.3748 10.8287 44.7549 13.2238 44.8644C15.6236 44.9739 16.3899 44.9997 22.5003 44.9997C28.6108 44.9997 29.3774 44.9739 31.7769 44.8644C34.1719 44.7549 35.8072 44.3748 37.2385 43.8183C40.2608 42.6496 42.65 40.2604 43.8186 37.2382C44.3752 35.8068 44.7552 34.1713 44.8647 31.7766C44.9739 29.3768 45 28.6105 45 22.5C45 16.3892 44.9739 15.6229 44.8647 13.2234ZM40.8146 31.5922C40.7146 33.786 40.348 34.9774 40.04 35.7701C39.283 37.7325 37.7322 39.2833 35.7698 40.0404C34.977 40.3483 33.7857 40.715 31.5919 40.8149C29.2199 40.9234 28.5081 40.946 22.5 40.946C16.4915 40.946 15.7801 40.9234 13.4078 40.8149C11.2143 40.715 10.023 40.3483 9.22989 40.0404C8.25279 39.6795 7.36874 39.1045 6.64295 38.357C5.89554 37.6313 5.32047 36.7476 4.95964 35.7701C4.65168 34.9774 4.28501 33.786 4.1851 31.5922C4.07696 29.2199 4.05396 28.5081 4.05396 22.5003C4.05396 16.4922 4.07696 15.7808 4.1851 13.4081C4.28535 11.2143 4.65168 10.023 4.95964 9.23023C5.32047 8.25279 5.89588 7.36874 6.64295 6.64295C7.36874 5.89554 8.25279 5.32047 9.23023 4.95998C10.023 4.65168 11.2143 4.28535 13.4081 4.1851C15.7805 4.07696 16.4922 4.05396 22.5 4.05396H22.4997C28.5075 4.05396 29.2192 4.07696 31.5919 4.18545C33.7857 4.28535 34.9767 4.65202 35.7698 4.95998C36.7469 5.32082 37.6309 5.89588 38.3567 6.64295C39.1041 7.36874 39.6792 8.25279 40.0397 9.23023C40.348 10.023 40.7146 11.2143 40.8146 13.4081C40.9227 15.7805 40.9457 16.4922 40.9457 22.5C40.9457 28.5081 40.923 29.2195 40.8146 31.5922Z" fill="url(#paint0_linear)"/>
<path d="M22.4996 10.9458C16.1186 10.9458 10.9458 16.119 10.9458 22.5C10.9458 28.881 16.1186 34.0538 22.4996 34.0538C28.881 34.0538 34.0538 28.881 34.0538 22.5C34.0538 16.119 28.881 10.9458 22.4996 10.9458ZM22.4996 29.9999C18.3578 29.9995 14.9998 26.6418 15.0001 22.4996C15.0001 18.3578 18.3578 14.9998 22.5 14.9998C26.6422 15.0001 29.9999 18.3578 29.9999 22.4996C29.9999 26.6418 26.6418 29.9999 22.4996 29.9999Z" fill="url(#paint1_linear)"/>
<path d="M37.2104 10.4895C37.2104 11.9806 36.0015 13.1894 34.5105 13.1894C33.0191 13.1894 31.8102 11.9806 31.8102 10.4895C31.8102 8.99815 33.0191 7.78931 34.5105 7.78931C36.0015 7.78931 37.2104 8.99815 37.2104 10.4895Z" fill="url(#paint2_linear)"/>
<defs>
<linearGradient id="paint0_linear" x1="3.77632" y1="41.2233" x2="41.2237" y2="3.77596" gradientUnits="userSpaceOnUse">
<stop stop-color="#FFD600"/>
<stop offset="0.5" stop-color="#FF0100"/>
<stop offset="1" stop-color="#D800B9"/>
</linearGradient>
<linearGradient id="paint1_linear" x1="14.3299" y1="30.6698" x2="30.6698" y2="14.3299" gradientUnits="userSpaceOnUse">
<stop stop-color="#FF6400"/>
<stop offset="0.5" stop-color="#FF0100"/>
<stop offset="1" stop-color="#FD0056"/>
</linearGradient>
<linearGradient id="paint2_linear" x1="32.6012" y1="12.3985" x2="36.4195" y2="8.58024" gradientUnits="userSpaceOnUse">
<stop stop-color="#F30072"/>
<stop offset="1" stop-color="#E50097"/>
</linearGradient>
</defs>
</svg>
