<svg width="45" height="45" viewBox="0 0 45 45" fill="none" xmlns="http://www.w3.org/2000/svg">
<path d="M23.1116 0C10.7783 0 4.21924 7.90348 4.21924 16.5214C4.21924 20.5181 6.45246 25.5021 10.0273 27.0828C10.5701 27.3275 10.8655 27.2234 10.9864 26.7199C11.0933 26.3374 11.563 24.4952 11.7908 23.6261C11.8611 23.3476 11.8246 23.1057 11.5996 22.8442C10.4126 21.4716 9.47041 18.9712 9.47041 16.6254C9.47041 10.6149 14.2491 4.77865 22.3804 4.77865C29.4119 4.77865 34.3312 9.34636 34.3312 15.8801C34.3312 23.2632 30.4245 28.371 25.3477 28.371C22.5379 28.371 20.4453 26.1659 21.1091 23.4376C21.9107 20.189 23.4829 16.6958 23.4829 14.3528C23.4829 12.2518 22.296 10.5136 19.8715 10.5136C17.0111 10.5136 14.6906 13.3459 14.6906 17.1486C14.6906 19.5646 15.5457 21.196 15.5457 21.196C15.5457 21.196 12.7162 32.6265 12.1902 34.7612C11.3014 38.3755 12.3112 44.2285 12.3984 44.732C12.4518 45.0105 12.764 45.0977 12.9384 44.8698C13.2168 44.5042 16.637 39.6243 17.5961 36.0972C17.9449 34.8119 19.3765 29.6001 19.3765 29.6001C20.3187 31.3017 23.0385 32.7277 25.9355 32.7277C34.5534 32.7277 40.7806 25.1533 40.7806 15.7535C40.7496 6.74187 33.0374 0 23.1116 0Z" fill="#D32F2F"/>
</svg>
