<svg width="20" height="20" viewBox="0 0 20 20" fill="none" xmlns="http://www.w3.org/2000/svg">
<g clip-path="url(#clip0)">
<path d="M6.37993 15.5564C5.22675 15.5564 4.29196 16.4912 4.29196 17.6444C4.29196 18.7975 5.22679 19.7323 6.37993 19.7323C7.5331 19.7323 8.46789 18.7975 8.46789 17.6444C8.46793 16.4912 7.5331 15.5564 6.37993 15.5564ZM6.37993 18.8044C5.73928 18.8044 5.21996 18.285 5.21996 17.6444C5.21996 17.0038 5.73928 16.4844 6.37993 16.4844C7.02057 16.4844 7.53989 17.0038 7.53989 17.6444C7.53994 18.285 7.02057 18.8044 6.37993 18.8044Z" fill="#08BBB7"/>
<path d="M15.1959 15.5564C14.0427 15.5564 13.1079 16.4912 13.1079 17.6444C13.1079 18.7975 14.0427 19.7323 15.1959 19.7323C16.349 19.7323 17.2838 18.7975 17.2838 17.6444C17.2838 16.4912 16.349 15.5564 15.1959 15.5564ZM15.1959 18.8044C14.5552 18.8044 14.0359 18.285 14.0359 17.6444C14.0359 17.0038 14.5552 16.4844 15.1959 16.4844C15.8365 16.4844 16.3558 17.0038 16.3558 17.6444C16.3559 18.285 15.8365 18.8044 15.1959 18.8044Z" fill="#08BBB7"/>
<path d="M19.9054 3.37639C19.8088 3.27084 19.6766 3.20476 19.5343 3.19077L4.43118 2.98198L4.01359 1.70597C3.7194 0.85298 2.92062 0.277125 2.01838 0.267578H0.463998C0.207731 0.267578 0 0.475309 0 0.731575C0 0.987841 0.207731 1.19557 0.463998 1.19557H2.01838C2.52288 1.20672 2.96712 1.53066 3.13199 2.00758L6.07837 10.8931L5.8464 11.4267C5.58764 12.0939 5.66535 12.8449 6.05519 13.4451C6.4413 14.0345 7.09087 14.3983 7.79519 14.4195H16.8199C17.0762 14.4195 17.2839 14.2117 17.2839 13.9555C17.2839 13.6992 17.0762 13.4915 16.8199 13.4915H7.79515C7.39741 13.4815 7.03128 13.2723 6.82075 12.9347C6.61258 12.6012 6.56981 12.1903 6.70476 11.8211L6.89038 11.4035L16.6575 10.3827C17.7304 10.2645 18.6129 9.48419 18.8615 8.43386L19.9751 3.77071C20.0253 3.63643 19.9987 3.4854 19.9054 3.37639ZM17.9567 8.22511C17.8061 8.90123 17.232 9.39995 16.5415 9.45471L6.89038 10.4523L4.73278 3.90997L18.9543 4.11876L17.9567 8.22511Z" fill="#08BBB7"/>
</g>
<defs>
<clipPath id="clip0">
<rect width="20" height="20" fill="white"/>
</clipPath>
</defs>
</svg>
