<svg width="209" height="61" viewBox="0 0 209 61" fill="none" xmlns="http://www.w3.org/2000/svg">
<rect x="1" y="1" width="207" height="59" fill="#F47308" stroke="#F94001" stroke-width="2"/>
<path d="M51.675 34.5405L54.9578 18.2905C55.1949 17.1173 54.4022 16 53.3326 16H26.0561L25.4196 12.4992C25.261 11.6266 24.5785 11 23.7867 11H16.6667C15.7462 11 15 11.8395 15 12.875V14.125C15 15.1605 15.7462 16 16.6667 16H21.5197L26.398 42.8309C25.2309 43.5859 24.4444 45.0017 24.4444 46.625C24.4444 49.0412 26.1856 51 28.3333 51C30.4811 51 32.2222 49.0412 32.2222 46.625C32.2222 45.4005 31.7745 44.2941 31.0539 43.5H45.6127C44.8922 44.2941 44.4444 45.4005 44.4444 46.625C44.4444 49.0412 46.1856 51 48.3333 51C50.4811 51 52.2222 49.0412 52.2222 46.625C52.2222 44.8928 51.3272 43.3959 50.0292 42.6871L50.4124 40.7905C50.6494 39.6173 49.8567 38.5 48.7872 38.5H30.147L29.6925 36H50.0498C50.828 36 51.5026 35.3942 51.675 34.5405Z" fill="white"/>
<path d="M91.9336 35.3213C91.5 35.9424 90.8936 36.4082 90.1143 36.7188C89.3408 37.0234 88.4385 37.1758 87.4072 37.1758C86.3643 37.1758 85.4385 36.9326 84.6299 36.4463C83.8213 35.9541 83.1943 35.2568 82.749 34.3545C82.3096 33.4521 82.084 32.4062 82.0723 31.2168V30.1006C82.0723 28.1729 82.5205 26.6787 83.417 25.6182C84.3193 24.5576 85.585 24.0273 87.2139 24.0273C88.5498 24.0273 89.625 24.3701 90.4395 25.0557C91.2539 25.7354 91.752 26.7021 91.9336 27.9561H90.2461C89.9297 26.2627 88.9219 25.416 87.2227 25.416C86.0918 25.416 85.2334 25.8145 84.6475 26.6113C84.0674 27.4023 83.7744 28.5508 83.7686 30.0566V31.1025C83.7686 32.5381 84.0967 33.6807 84.7529 34.5303C85.4092 35.374 86.2969 35.7959 87.416 35.7959C88.0488 35.7959 88.6025 35.7256 89.0771 35.585C89.5518 35.4443 89.9443 35.207 90.2549 34.873V31.999H87.293V30.6279H91.9336V35.3213ZM99.2654 37H97.5779V24.2031H99.2654V37ZM114.903 31.0146C114.903 32.2686 114.692 33.3643 114.27 34.3018C113.848 35.2334 113.251 35.9453 112.477 36.4375C111.704 36.9297 110.801 37.1758 109.77 37.1758C108.762 37.1758 107.869 36.9297 107.089 36.4375C106.31 35.9395 105.704 35.2334 105.27 34.3193C104.842 33.3994 104.623 32.3359 104.611 31.1289V30.2061C104.611 28.9756 104.825 27.8887 105.253 26.9453C105.68 26.002 106.284 25.2812 107.063 24.7832C107.848 24.2793 108.745 24.0273 109.753 24.0273C110.778 24.0273 111.68 24.2764 112.46 24.7744C113.245 25.2666 113.848 25.9844 114.27 26.9277C114.692 27.8652 114.903 28.958 114.903 30.2061V31.0146ZM113.224 30.1885C113.224 28.6709 112.92 27.5078 112.31 26.6992C111.701 25.8848 110.848 25.4775 109.753 25.4775C108.686 25.4775 107.845 25.8848 107.23 26.6992C106.621 27.5078 106.307 28.6328 106.29 30.0742V31.0146C106.29 32.4854 106.597 33.6426 107.212 34.4863C107.834 35.3242 108.686 35.7432 109.77 35.7432C110.86 35.7432 111.704 35.3477 112.301 34.5566C112.899 33.7598 113.207 32.6201 113.224 31.1377V30.1885ZM109.234 23.21L109.225 21.8652C109.665 21.8359 109.987 21.7773 110.192 21.6895C110.397 21.6016 110.5 21.4434 110.5 21.2148C110.5 20.9863 110.365 20.8164 110.095 20.7051C109.832 20.5879 109.48 20.5293 109.041 20.5293L109.102 19.5977C109.975 19.5977 110.637 19.75 111.088 20.0547C111.54 20.3535 111.765 20.752 111.765 21.25C111.765 21.6074 111.651 21.9033 111.422 22.1377C111.194 22.3721 110.854 22.5215 110.403 22.5859L110.394 23.21H109.234ZM137.134 37H135.438V31.085H128.987V37H127.299V24.2031H128.987V29.7051H135.438V24.2031H137.134V37ZM150.056 33.6602H144.694L143.49 37H141.75L146.637 24.2031H148.113L153.009 37H151.277L150.056 33.6602ZM145.204 32.2715H149.555L147.375 26.2861L145.204 32.2715ZM148.342 23.3594H146.944L144.677 20.7754H146.637L148.342 23.3594ZM167.266 37H165.57L159.128 27.1387V37H157.431V24.2031H159.128L165.588 34.1084V24.2031H167.266V37ZM182.412 35.3213C181.978 35.9424 181.372 36.4082 180.592 36.7188C179.819 37.0234 178.917 37.1758 177.885 37.1758C176.842 37.1758 175.917 36.9326 175.108 36.4463C174.299 35.9541 173.672 35.2568 173.227 34.3545C172.788 33.4521 172.562 32.4062 172.55 31.2168V30.1006C172.55 28.1729 172.999 26.6787 173.895 25.6182C174.797 24.5576 176.063 24.0273 177.692 24.0273C179.028 24.0273 180.103 24.3701 180.918 25.0557C181.732 25.7354 182.23 26.7021 182.412 27.9561H180.724C180.408 26.2627 179.4 25.416 177.701 25.416C176.57 25.416 175.712 25.8145 175.126 26.6113C174.546 27.4023 174.253 28.5508 174.247 30.0566V31.1025C174.247 32.5381 174.575 33.6807 175.231 34.5303C175.887 35.374 176.775 35.7959 177.894 35.7959C178.527 35.7959 179.081 35.7256 179.555 35.585C180.03 35.4443 180.422 35.207 180.733 34.873V31.999H177.771V30.6279H182.412V35.3213Z" fill="white"/>
</svg>
