<svg height="30px" viewBox="0 0 512 512.1611" width="30px" xmlns="http://www.w3.org/2000/svg"><path style="fill:white" d="m102.695312 441.335938c.15625.167968.324219.324218.503907.476562 2.191406 2.074219 4.265625 4.136719 6.578125 6.210938 4.828125 31.148437 63.46875 64.136718 146.304687 64.136718 82.832031 0 141.472657-32.988281 146.300781-64.144531 2.273438-2.074219 4.378907-4.136719 6.582032-6.210937.179687-.164063.347656-.308594.511718-.480469 46.855469-44.199219 76.800782-87.292969 95.769532-138.042969 4.347656-6.148438 6.734375-13.476562 6.835937-21.007812 0-38.085938-61.5625-64.1875-140.128906-76.910157l129.316406-139.675781c2.21875-2.207031 3.050781-5.457031 2.167969-8.460938-.886719-3.003906-3.34375-5.28125-6.410156-5.933593-3.0625-.652344-6.234375.425781-8.269532 2.808593l-137.308593 148.300782c-8.1875-1.046875-16.484375-1.964844-24.890625-2.757813l73.992187-187.820312c1.191407-2.847657.75-6.121094-1.15625-8.554688-1.90625-2.429687-4.976562-3.644531-8.03125-3.167969-3.050781.476563-5.609375 2.566407-6.683593 5.460938l-75.949219 192.675781c-17.414063-1.1875-35.105469-1.808593-52.648438-1.808593-124.101562 0-255.9999998 30.085937-255.9999998 85.84375.0703128 7.339843 2.3749998 14.484374 6.6132808 20.480468 18.984376 50.960938 48.953126 94.207032 96 138.582032zm153.386719 53.757812c-71.339843 0-113.769531-24.90625-125.945312-42.078125 40.183593 15.683594 82.816406 24.152344 125.945312 25.011719 43.125-.859375 85.761719-9.328125 125.941407-25.011719-12.175782 17.171875-54.605469 42.078125-125.941407 42.078125zm142.359375-66.816406-1.074218.4375c-25.949219 10.46875-79.957032 32.246094-141.285157 32.246094-61.332031 0-115.339843-21.777344-141.289062-32.246094l-1.074219-.429688c-31.597656-28.707031-57.839844-62.800781-77.507812-100.691406 7.8125 4.273438 15.914062 7.996094 24.242187 11.144531 11.925781 4.613281 24.136719 8.453125 36.558594 11.496094 7.550781 1.953125 15.4375 3.726563 23.535156 5.375 9.617187 1.953125 19.695313 3.617187 30.027344 5.121094.085937 0 .144531.050781.230469.058593h.316406c13.210937 1.929688 26.835937 3.582032 41.113281 4.769532h.121094c7.464843.511718 15.007812 1.023437 22.671875 1.460937 4.402344.21875 8.925781.355469 13.421875.511719h.128906c9.070313.304688 18.226563.519531 27.511719.519531 18.242187 0 36.691406-.667969 54.785156-1.953125.167969 0 .332031.074219.511719.074219.378906-.035156.753906-.097656 1.125-.1875 17.527343-1.277344 34.773437-3.164063 51.363281-5.621094h.074219c.722656 0 1.4375-.09375 2.132812-.273437.085938 0 .136719-.078125.222657-.105469 43.921874-6.6875 82.929687-17.484375 109.527343-32.160156-19.65625 37.796875-45.855469 71.808593-77.390625 100.453125zm-330.09375-108.117188c0-5.742187 6.730469-12.269531 18.472656-18.472656-.902343 4.683594-1.375 9.4375-1.40625 14.207031 0 1.347657 0 2.6875.09375 3.601563.164063 3.414062.566407 6.8125 1.195313 10.171875-6.035156-1.816407-11.828125-3.765625-17.332031-5.847657-.617188-1.125-.96875-2.375-1.023438-3.660156zm366.652344 6.539063c-2.988281-18.410157-13.992188-34.542969-30.039062-44.042969-4.21875-2.105469-9.34375-.394531-11.449219 3.824219-2.109375 4.21875-.398438 9.34375 3.820312 11.453125 11.738281 7.558594 19.476563 19.96875 21.105469 33.832031-3.203125.898437-6.503906 1.757813-9.875 2.5625-9.585938-16.023437-21.832031-30.292969-36.214844-42.199219-3.683594-2.839844-8.960937-2.210937-11.871094 1.417969-2.910156 3.628906-2.378906 8.917969 1.195313 11.894531 11.320313 9.503906 21.226563 20.578125 29.414063 32.886719-6.828126 1.417969-13.921876 2.734375-21.289063 3.953125-4.378906-13.285156-12.617187-24.960938-23.664063-33.539062-3.921874-2.503907-9.128906-1.40625-11.703124 2.472656-2.578126 3.878906-1.566407 9.105468 2.265624 11.746094 7.09375 5.824218 12.554688 13.382812 15.855469 21.945312-11.09375 1.484375-22.65625 2.730469-34.699219 3.703125-1.292968-5.144531-1.976562-10.425781-2.039062-15.734375-.011719-4.988281.5625-9.964844 1.707031-14.820312 2.820313-12.96875 9.449219-24.800782 19.039063-33.972657.328125-.246093.640625-.519531.929687-.808593 1.792969-1.78125 3.710938-3.425782 5.742188-4.925782l.136719-.109375 1.117187-.796875c.257813-.144531.496094-.296875.742187-.46875 11.367188-8.015625 24.945313-12.308594 38.855469-12.277344 24.25.050782 46.664063 12.917969 58.9375 33.832032 4 6.832031 6.757813 14.320312 8.148438 22.113281-5.003907 2.09375-10.394531 4.113281-16.167969 6.058594zm-156.453125-28.46875c2.109375.839843 4.464844.800781 6.546875-.097657 2.082031-.902343 3.71875-2.597656 4.546875-4.707031l11.667969-29.636719c1.578125.777344 3.15625 1.5625 4.75 2.484376 3.792968 2.347656 7.367187 5.019531 10.695312 7.988281.230469.203125.46875.398437.714844.578125.855469.785156 1.613281 1.5625 2.390625 2.339844-9.375 10.542968-15.90625 23.304687-18.980469 37.078124-1.441406 6.128907-2.15625 12.40625-2.132812 18.703126.007812 5.652343.582031 11.289062 1.707031 16.828124-8.53125.488282-17.296875.835938-26.289063 1.039063-.417968-7.796875 2.824219-10.238281 2.773438-10.238281 4.214844-2.105469 5.929688-7.234375 3.820312-11.453125-2.105468-4.214844-7.234374-5.929688-11.449218-3.820313-8.742188 5.457032-13.515625 15.492188-12.238282 25.71875h-.988281c-6.828125 0-13.585937-.085937-20.285156-.257812-5.410156-39.925782 22.261719-52.050782 23.457031-52.574219 2.832032-1.132813 4.84375-3.691406 5.277344-6.710937.4375-3.019532-.773438-6.042969-3.171875-7.925782-2.398437-1.886718-5.621094-2.351562-8.453125-1.214844-14.507812 5.800782-38.585938 27.125-34.371094 67.769532-.855468 0-1.707031-.050782-2.5625-.101563-5.65625-.308593-11.175781-.691406-16.679687-1.066406-1.9375-6.578125-2.929688-13.402344-2.945313-20.257813-.007812-4.699218.453125-9.390624 1.382813-13.996093 2.824219-14.734375 10.210937-28.207031 21.121093-38.511719 1.371094-1.382812 2.839844-2.671875 4.394532-3.855469 17.410156-13.925781 40.210937-19.171875 61.957031-14.257812l-11.457031 29.089843c-1.730469 4.382813.421875 9.335938 4.800781 11.066407zm-77.695313-27.800781c-10.089843 11.679687-16.941406 25.804687-19.863281 40.960937-1.148437 5.695313-1.71875 11.492187-1.707031 17.304687.023438 6.273438.699219 12.527344 2.023438 18.660157-4.011719-.398438-8.117188-.75-12.035157-1.21875-2.558593-.308594-5.042969-.699219-7.585937-1.03125l-.390625-.0625c1.15625-5.363281 3.558593-10.378907 7.015625-14.640625 3.21875-3.363282 3.148437-8.691406-.160156-11.96875-3.308594-3.277344-8.636719-3.292969-11.96875-.039063-6.042969 6.867188-10.128907 15.230469-11.835938 24.21875-2.285156-.367187-4.480469-.792969-6.722656-1.195312-1.640625-.28125-3.242188-.589844-4.863282-.855469-1.519531-39.457031 23.039063-50.40625 24.089844-50.839844 2.832032-1.132812 4.84375-3.6875 5.28125-6.707031.4375-3.015625-.769531-6.039063-3.164062-7.925781-2.398438-1.886719-5.617188-2.351563-8.449219-1.222656-1.527344.613281-34.988281 14.660156-34.910156 63.222656-3.414063-.75-6.828125-1.515625-10.085938-2.335938-1.761719-5.257812-2.765625-10.734375-2.988281-16.273437-.050781-.835938-.050781-1.734375-.050781-2.585938-.011719-15.847656 6.277343-31.046875 17.480469-42.253906 11.207031-11.203125 26.40625-17.492187 42.253906-17.480469 14.167968.007813 27.867187 5.066406 38.636718 14.269532zm294.164063 11.84375c0 10.351562-9.960937 21.070312-28.023437 30.875-1.90625-8.164063-5.019532-15.992188-9.242188-23.230469-15.339844-26.144531-43.359375-42.226563-73.667969-42.289063-16.265625-.019531-32.1875 4.683594-45.835937 13.53125-4.058594-.535156-8.171875-1.03125-12.371094-1.464844-.777344-.660156-1.578125-1.316406-2.40625-1.964843l34.550781-37.316407c83.96875 12.058594 136.996094 37.957032 136.996094 61.859376zm-157.816406-64.511719-28.425781 30.71875c-.390626-.195313-.808594-.441407-1.203126-.628907l12.511719-31.738281c5.824219.496094 11.53125 1.042969 17.117188 1.648438zm-81.117188-4.265625c15.964844 0 31.359375.484375 46.148438 1.363281l-10.761719 27.308594c-26.515625-6.679688-54.628906-1.097657-76.578125 15.203125-.949219.054687-1.902344.128906-2.851563.199218-17.585937-15.109374-41.078124-21.421874-63.867187-17.164062-22.792969 4.257812-42.421875 18.621094-53.371094 39.058594-26.453125 10.242187-40.910156 22.632812-43.050781 36.949218-11.621094-4.789062-21.917969-12.300781-30.027344-21.902343-.15625-.273438-.316406-.539063-.496094-.796875-2.542968-3.28125-3.972656-7.289063-4.078124-11.441406 0-32.53125 98.132812-68.777344 238.933593-68.777344zm0 0"/><path style="fill:white" d="m136.613281 136.695312c.371094 7.0625-1.800781 14.023438-6.117187 19.625-2.992188 3.402344-2.804688 8.546876.421875 11.722657 3.230469 3.175781 8.378906 3.273437 11.730469.226562 7.566406-8.734375 11.515624-20.027343 11.03125-31.574219.507812-11.535156-3.40625-22.824218-10.9375-31.574218-4.328126-5.597656-6.503907-12.5625-6.128907-19.625-.375-7.03125 1.765625-13.96875 6.035157-19.570313 2.21875-2.140625 3.105468-5.3125 2.324218-8.296875s-3.109375-5.3125-6.09375-6.09375-6.15625.109375-8.296875 2.328125c-7.585937 8.746094-11.53125 20.066407-11.035156 31.632813-.503906 11.53125 3.40625 22.824218 10.941406 31.570312 4.324219 5.597656 6.5 12.5625 6.125 19.628906zm0 0"/><path style="fill:white" d="m187.8125 85.496094c.371094 7.0625-1.800781 14.023437-6.117188 19.625-2.992187 3.402344-2.804687 8.546875.425782 11.722656 3.226562 3.175781 8.375 3.273438 11.726562.222656 7.566406-8.730468 11.515625-20.027344 11.03125-31.570312.507813-11.535156-3.40625-22.828125-10.9375-31.574219-4.328125-5.597656-6.5-12.5625-6.128906-19.628906-.371094-7.03125 1.765625-13.964844 6.035156-19.566407 3.234375-3.347656 3.1875-8.667968-.105468-11.960937-3.289063-3.292969-8.613282-3.339844-11.960938-.105469-7.582031 8.75-11.53125 20.066406-11.035156 31.632813-.503906 11.535156 3.410156 22.828125 10.941406 31.574219 4.328125 5.597656 6.5 12.5625 6.125 19.628906zm0 0"/><path style="fill:white" d="m239.015625 136.695312c.367187 7.0625-1.804687 14.023438-6.121094 19.625-2.992187 3.402344-2.804687 8.546876.425781 11.722657 3.230469 3.175781 8.378907 3.273437 11.726563.226562 7.570313-8.734375 11.515625-20.027343 11.035156-31.574219.503907-11.535156-3.410156-22.824218-10.941406-31.574218-4.328125-5.597656-6.5-12.5625-6.125-19.625-.375-7.03125 1.761719-13.96875 6.03125-19.570313 2.21875-2.140625 3.109375-5.3125 2.328125-8.296875s-3.113281-5.3125-6.09375-6.09375c-2.984375-.78125-6.15625.109375-8.300781 2.328125-7.582031 8.746094-11.53125 20.066407-11.035157 31.632813-.503906 11.53125 3.410157 22.824218 10.941407 31.570312 4.328125 5.597656 6.5 12.5625 6.128906 19.628906zm0 0"/><path style="fill:white" d="m204.878906 418.292969c-54.550781 0-78.777344-22.601563-79.359375-23.132813-3.355469-3.226562-8.679687-3.164062-11.960937.136719-3.285156 3.300781-3.316406 8.625-.070313 11.964844 1.167969 1.152343 28.84375 28.097656 91.390625 28.097656 4.714844 0 8.535156-3.820313 8.535156-8.53125 0-4.714844-3.820312-8.535156-8.535156-8.535156zm0 0"/></svg>