<svg width="293" height="40" viewBox="0 0 293 40" fill="none" xmlns="http://www.w3.org/2000/svg">
<rect x="1" y="1" width="39" height="38" stroke="#BEC2C7" stroke-width="2"/>
<path d="M12.1048 20.808L7.01684 12.36H10.2568L13.5928 18.528L17.0248 12.36H20.1928L15.0808 20.76L20.6968 30H17.5048L13.6168 23.016L9.80084 30H6.70484L12.1048 20.808ZM26.8538 30.24C25.8938 30.24 24.9418 30.072 23.9978 29.736C23.0538 29.4 22.3738 29.024 21.9578 28.608L23.2298 26.328C23.5658 26.632 24.0858 26.952 24.7898 27.288C25.5098 27.608 26.1978 27.768 26.8538 27.768C27.7018 27.768 28.3898 27.568 28.9178 27.168C29.4618 26.768 29.7338 26.216 29.7338 25.512C29.7338 24.968 29.5898 24.496 29.3018 24.096C29.0138 23.696 28.6618 23.368 28.2458 23.112C27.8298 22.84 27.2378 22.512 26.4698 22.128C25.5578 21.68 24.9338 21.344 24.5978 21.12C23.0458 20.08 22.2698 18.64 22.2698 16.8C22.2698 15.28 22.7738 14.12 23.7818 13.32C24.7898 12.504 26.0618 12.096 27.5978 12.096C29.2458 12.096 30.6458 12.568 31.7978 13.512L30.5258 15.696C30.2218 15.376 29.7898 15.104 29.2298 14.88C28.6858 14.64 28.1018 14.52 27.4778 14.52C26.6778 14.52 26.0458 14.704 25.5818 15.072C25.1338 15.424 24.9098 15.952 24.9098 16.656C24.9098 17.152 25.0538 17.6 25.3418 18C25.6298 18.384 25.9898 18.72 26.4218 19.008C26.8698 19.296 27.4698 19.648 28.2218 20.064C28.9418 20.464 29.4938 20.784 29.8778 21.024C30.2618 21.248 30.6218 21.52 30.9578 21.84C31.4218 22.256 31.7978 22.752 32.0858 23.328C32.3738 23.904 32.5178 24.536 32.5178 25.224C32.5178 26.296 32.2698 27.208 31.7738 27.96C31.2938 28.712 30.6218 29.28 29.7578 29.664C28.9098 30.048 27.9418 30.24 26.8538 30.24Z" fill="#BEC2C7"/>
<line x1="1.35337" y1="1.62689" x2="40.0348" y2="38.933" stroke="#BEC2C7" stroke-width="2"/>
<rect x="64" y="1" width="39" height="38" fill="#FBDBE6" fill-opacity="0.39" stroke="#BEC2C7" stroke-width="2"/>
<path d="M83.1233 30.24C82.1633 30.24 81.2113 30.072 80.2673 29.736C79.3233 29.4 78.6433 29.024 78.2273 28.608L79.4993 26.328C79.8353 26.632 80.3553 26.952 81.0593 27.288C81.7793 27.608 82.4673 27.768 83.1233 27.768C83.9713 27.768 84.6593 27.568 85.1873 27.168C85.7313 26.768 86.0033 26.216 86.0033 25.512C86.0033 24.968 85.8593 24.496 85.5713 24.096C85.2833 23.696 84.9313 23.368 84.5153 23.112C84.0993 22.84 83.5073 22.512 82.7393 22.128C81.8273 21.68 81.2033 21.344 80.8673 21.12C79.3153 20.08 78.5393 18.64 78.5393 16.8C78.5393 15.28 79.0433 14.12 80.0513 13.32C81.0593 12.504 82.3313 12.096 83.8673 12.096C85.5153 12.096 86.9153 12.568 88.0673 13.512L86.7953 15.696C86.4913 15.376 86.0593 15.104 85.4993 14.88C84.9553 14.64 84.3713 14.52 83.7473 14.52C82.9473 14.52 82.3153 14.704 81.8513 15.072C81.4033 15.424 81.1793 15.952 81.1793 16.656C81.1793 17.152 81.3233 17.6 81.6113 18C81.8993 18.384 82.2593 18.72 82.6913 19.008C83.1393 19.296 83.7393 19.648 84.4913 20.064C85.2113 20.464 85.7633 20.784 86.1473 21.024C86.5313 21.248 86.8913 21.52 87.2273 21.84C87.6913 22.256 88.0673 22.752 88.3553 23.328C88.6433 23.904 88.7873 24.536 88.7873 25.224C88.7873 26.296 88.5393 27.208 88.0433 27.96C87.5633 28.712 86.8913 29.28 86.0273 29.664C85.1793 30.048 84.2113 30.24 83.1233 30.24Z" fill="black"/>
<rect x="127" y="1" width="39" height="38" stroke="#BEC2C7" stroke-width="2"/>
<path d="M141.674 21.768L140.57 19.272L140.066 21.768L138.434 30H135.77L139.418 12.36H139.706L144.554 21.888L145.994 25.08L147.434 21.888L152.186 12.36H152.45L156.242 30H153.602L151.826 21.768L151.298 19.272L150.338 21.768L146.066 30H145.922L141.674 21.768Z" fill="black"/>
<rect x="190" y="1" width="39" height="38" stroke="#BEC2C7" stroke-width="2"/>
<path d="M206.192 12.36H208.904V27.6H213.968V30H206.192V12.36Z" fill="black"/>
<rect x="253" y="1" width="39" height="38" stroke="#BEC2C7" stroke-width="2"/>
<path d="M265.73 20.808L260.642 12.36H263.882L267.218 18.528L270.65 12.36H273.818L268.706 20.76L274.322 30H271.13L267.242 23.016L263.426 30H260.33L265.73 20.808ZM276.423 12.36H279.135V27.6H284.199V30H276.423V12.36Z" fill="black"/>
</svg>
