<svg width="202" height="33" viewBox="0 0 202 33" fill="none" xmlns="http://www.w3.org/2000/svg">
<rect width="202" height="33" fill="#EF5DA8"/>
<path d="M52.1381 11.696L57.0941 22H55.2881L54.4061 19.984H49.6881L48.8061 22H47.0561L51.9841 11.696H52.1381ZM51.4381 16.078L50.3181 18.57H53.7901L52.6841 16.092L52.0821 14.678H52.0541L51.4381 16.078ZM59.9161 11.71H62.3941C64.4661 11.71 65.9127 12.2 66.7341 13.18C67.5647 14.16 67.9801 15.3267 67.9801 16.68C67.9801 17.6227 67.8027 18.4953 67.4481 19.298C67.0934 20.0913 66.5054 20.74 65.6841 21.244C64.8721 21.748 63.8034 22 62.4781 22H59.9161V11.71ZM62.6461 20.614C63.9341 20.614 64.8674 20.25 65.4461 19.522C66.0341 18.7847 66.3281 17.8607 66.3281 16.75C66.3281 15.6673 66.0341 14.7853 65.4461 14.104C64.8581 13.4227 63.9247 13.082 62.6461 13.082H61.4841V20.614H62.6461ZM71.5147 11.71H73.9927C76.0647 11.71 77.5114 12.2 78.3327 13.18C79.1634 14.16 79.5787 15.3267 79.5787 16.68C79.5787 17.6227 79.4014 18.4953 79.0467 19.298C78.6921 20.0913 78.1041 20.74 77.2827 21.244C76.4707 21.748 75.4021 22 74.0767 22H71.5147V11.71ZM74.2447 20.614C75.5327 20.614 76.4661 20.25 77.0447 19.522C77.6327 18.7847 77.9267 17.8607 77.9267 16.75C77.9267 15.6673 77.6327 14.7853 77.0447 14.104C76.4567 13.4227 75.5234 13.082 74.2447 13.082H73.0827V20.614H74.2447ZM90.465 13.082H87.833V11.71H94.679V13.082H92.019V22H90.465V13.082ZM102.32 22.14C101.387 22.14 100.523 21.9253 99.7301 21.496C98.9461 21.0573 98.3208 20.4367 97.8541 19.634C97.3874 18.8313 97.1541 17.898 97.1541 16.834C97.1541 15.7607 97.3874 14.8273 97.8541 14.034C98.3208 13.2313 98.9461 12.6153 99.7301 12.186C100.523 11.7567 101.387 11.542 102.32 11.542C103.253 11.542 104.112 11.7567 104.896 12.186C105.689 12.6153 106.319 13.2313 106.786 14.034C107.253 14.8273 107.486 15.7607 107.486 16.834C107.486 17.898 107.253 18.8313 106.786 19.634C106.319 20.4367 105.689 21.0573 104.896 21.496C104.112 21.9253 103.253 22.14 102.32 22.14ZM102.32 20.726C102.964 20.726 103.552 20.5767 104.084 20.278C104.616 19.97 105.036 19.5267 105.344 18.948C105.661 18.36 105.82 17.66 105.82 16.848C105.82 16.0267 105.661 15.3267 105.344 14.748C105.036 14.16 104.616 13.7167 104.084 13.418C103.561 13.1193 102.973 12.97 102.32 12.97C101.667 12.97 101.074 13.1193 100.542 13.418C100.01 13.7167 99.5901 14.16 99.2821 14.748C98.9741 15.3267 98.8201 16.0267 98.8201 16.848C98.8201 17.66 98.9788 18.36 99.2961 18.948C99.6134 19.5267 100.038 19.97 100.57 20.278C101.111 20.5767 101.695 20.726 102.32 20.726ZM121.264 22.098C120.2 22.098 119.276 21.86 118.492 21.384C117.718 20.908 117.125 20.2733 116.714 19.48C116.304 18.6773 116.098 17.7953 116.098 16.834C116.098 15.8167 116.318 14.9067 116.756 14.104C117.204 13.3013 117.83 12.676 118.632 12.228C119.435 11.7707 120.345 11.542 121.362 11.542C121.82 11.542 122.244 11.5933 122.636 11.696C123.038 11.7893 123.369 11.9013 123.63 12.032C123.892 12.1533 124.064 12.256 124.148 12.34L123.462 13.74C122.893 13.236 122.151 12.984 121.236 12.984C120.592 12.984 120.009 13.1427 119.486 13.46C118.964 13.7773 118.553 14.23 118.254 14.818C117.956 15.406 117.806 16.0873 117.806 16.862C117.806 17.5713 117.937 18.2153 118.198 18.794C118.469 19.3727 118.861 19.83 119.374 20.166C119.888 20.502 120.499 20.67 121.208 20.67C122.03 20.67 122.823 20.4367 123.588 19.97L124.05 21.3C123.845 21.4867 123.467 21.6687 122.916 21.846C122.375 22.014 121.824 22.098 121.264 22.098ZM131.406 11.696L136.362 22H134.556L133.674 19.984H128.956L128.074 22H126.324L131.252 11.696H131.406ZM130.706 16.078L129.586 18.57H133.058L131.952 16.092L131.35 14.678H131.322L130.706 16.078ZM144.322 22L142.25 18.108C141.821 18.1267 141.438 18.136 141.102 18.136H140.71V22H139.184V11.71H141.522C142.707 11.71 143.683 11.9573 144.448 12.452C145.213 12.9373 145.596 13.7307 145.596 14.832C145.596 15.5227 145.433 16.12 145.106 16.624C144.789 17.1187 144.313 17.5013 143.678 17.772L146.128 22H144.322ZM141.704 16.862C142.619 16.862 143.244 16.666 143.58 16.274C143.925 15.8727 144.098 15.3967 144.098 14.846C144.098 13.6233 143.281 13.012 141.648 13.012H140.71V16.862H141.704ZM151.088 13.082H148.456V11.71H155.302V13.082H152.642V22H151.088V13.082Z" fill="white"/>
</svg>
