<svg width="48" height="48" viewBox="0 0 48 48" fill="none" xmlns="http://www.w3.org/2000/svg">
<g clip-path="url(#clip0)">
<path fill-rule="evenodd" clip-rule="evenodd" d="M33.6866 13.0954C31.2086 10.732 27.9016 9.44446 24.48 9.49737C18.2187 9.49737 12.9011 13.7215 11.0051 19.4095C9.99973 22.3902 9.99973 25.6179 11.0051 28.5986H11.0139C12.9187 34.2779 18.2275 38.502 24.4888 38.502C27.7208 38.502 30.4956 37.6753 32.6461 36.2151V36.2092C35.177 34.5336 36.9055 31.8969 37.4434 28.9162H24.48V19.6742H47.1175C47.3997 21.2792 47.532 22.9195 47.532 24.5509C47.532 31.8506 44.9232 38.0222 40.3841 42.2022L40.3888 42.2058C36.4116 45.8744 30.9529 47.9997 24.48 47.9997C15.4056 47.9997 7.10718 42.8849 3.03296 34.7805C-0.371021 27.999 -0.371012 20.0093 3.03298 13.2277C7.10721 5.11455 15.4055 -0.000335793 24.48 -0.000335793C30.4414 -0.0708851 36.2 2.16906 40.5387 6.24328L33.6866 13.0954Z" fill="white"/>
</g>
<defs>
<clipPath id="clip0">
<rect width="48" height="48" fill="white"/>
</clipPath>
</defs>
</svg>
