<svg width="120" height="35" viewBox="0 0 120 35" fill="none" xmlns="http://www.w3.org/2000/svg">
<path d="M28.2352 23.13C27.7152 23.13 27.1995 23.039 26.6882 22.857C26.1768 22.675 25.8085 22.4713 25.5832 22.246L26.2722 21.011C26.4542 21.1757 26.7358 21.349 27.1172 21.531C27.5072 21.7043 27.8798 21.791 28.2352 21.791C28.6945 21.791 29.0672 21.6827 29.3532 21.466C29.6478 21.2493 29.7952 20.9503 29.7952 20.569C29.7952 20.2743 29.7172 20.0187 29.5612 19.802C29.4052 19.5853 29.2145 19.4077 28.9892 19.269C28.7638 19.1217 28.4432 18.944 28.0272 18.736C27.5332 18.4933 27.1952 18.3113 27.0132 18.19C26.1725 17.6267 25.7522 16.8467 25.7522 15.85C25.7522 15.0267 26.0252 14.3983 26.5712 13.965C27.1172 13.523 27.8062 13.302 28.6382 13.302C29.5308 13.302 30.2892 13.5577 30.9132 14.069L30.2242 15.252C30.0595 15.0787 29.8255 14.9313 29.5222 14.81C29.2275 14.68 28.9112 14.615 28.5732 14.615C28.1398 14.615 27.7975 14.7147 27.5462 14.914C27.3035 15.1047 27.1822 15.3907 27.1822 15.772C27.1822 16.0407 27.2602 16.2833 27.4162 16.5C27.5722 16.708 27.7672 16.89 28.0012 17.046C28.2438 17.202 28.5688 17.3927 28.9762 17.618C29.3662 17.8347 29.6652 18.008 29.8732 18.138C30.0812 18.2593 30.2762 18.4067 30.4582 18.58C30.7095 18.8053 30.9132 19.074 31.0692 19.386C31.2252 19.698 31.3032 20.0403 31.3032 20.413C31.3032 20.9937 31.1688 21.4877 30.9002 21.895C30.6402 22.3023 30.2762 22.61 29.8082 22.818C29.3488 23.026 28.8245 23.13 28.2352 23.13ZM32.8552 13.445H34.3112V17.345H37.6782V13.445H39.1342V23H37.6782V18.567H34.3112V23H32.8552V13.445ZM45.5396 23.13C44.6729 23.13 43.8713 22.9307 43.1346 22.532C42.4066 22.1247 41.8259 21.5483 41.3926 20.803C40.9593 20.0577 40.7426 19.191 40.7426 18.203C40.7426 17.2063 40.9593 16.3397 41.3926 15.603C41.8259 14.8577 42.4066 14.2857 43.1346 13.887C43.8713 13.4883 44.6729 13.289 45.5396 13.289C46.4063 13.289 47.2036 13.4883 47.9316 13.887C48.6683 14.2857 49.2533 14.8577 49.6866 15.603C50.1199 16.3397 50.3366 17.2063 50.3366 18.203C50.3366 19.191 50.1199 20.0577 49.6866 20.803C49.2533 21.5483 48.6683 22.1247 47.9316 22.532C47.2036 22.9307 46.4063 23.13 45.5396 23.13ZM45.5396 21.817C46.1376 21.817 46.6836 21.6783 47.1776 21.401C47.6716 21.115 48.0616 20.7033 48.3476 20.166C48.6423 19.62 48.7896 18.97 48.7896 18.216C48.7896 17.4533 48.6423 16.8033 48.3476 16.266C48.0616 15.72 47.6716 15.3083 47.1776 15.031C46.6923 14.7537 46.1463 14.615 45.5396 14.615C44.9329 14.615 44.3826 14.7537 43.8886 15.031C43.3946 15.3083 43.0046 15.72 42.7186 16.266C42.4326 16.8033 42.2896 17.4533 42.2896 18.216C42.2896 18.97 42.4369 19.62 42.7316 20.166C43.0263 20.7033 43.4206 21.115 43.9146 21.401C44.4173 21.6783 44.9589 21.817 45.5396 21.817ZM51.962 13.445H54.068C55.2553 13.445 56.122 13.7007 56.668 14.212C57.2227 14.7147 57.5 15.408 57.5 16.292C57.5 17.3147 57.201 18.099 56.603 18.645C56.005 19.191 55.1167 19.464 53.938 19.464H53.431V23H51.962V13.445ZM53.977 18.177C54.7397 18.177 55.2727 18.008 55.576 17.67C55.8793 17.332 56.031 16.9247 56.031 16.448C56.031 15.9367 55.8837 15.5207 55.589 15.2C55.2943 14.8793 54.8003 14.719 54.107 14.719H53.431V18.177H53.977ZM63.4591 16.812L63.4981 17.852V23H62.0421V13.432H62.2241L67.8401 19.698L67.7881 18.606V13.445H69.2441V23H69.0491L63.4591 16.812ZM75.6656 23.13C74.7989 23.13 73.9972 22.9307 73.2606 22.532C72.5326 22.1247 71.9519 21.5483 71.5186 20.803C71.0852 20.0577 70.8686 19.191 70.8686 18.203C70.8686 17.2063 71.0852 16.3397 71.5186 15.603C71.9519 14.8577 72.5326 14.2857 73.2606 13.887C73.9972 13.4883 74.7989 13.289 75.6656 13.289C76.5322 13.289 77.3296 13.4883 78.0576 13.887C78.7942 14.2857 79.3792 14.8577 79.8126 15.603C80.2459 16.3397 80.4626 17.2063 80.4626 18.203C80.4626 19.191 80.2459 20.0577 79.8126 20.803C79.3792 21.5483 78.7942 22.1247 78.0576 22.532C77.3296 22.9307 76.5322 23.13 75.6656 23.13ZM75.6656 21.817C76.2636 21.817 76.8096 21.6783 77.3036 21.401C77.7976 21.115 78.1876 20.7033 78.4736 20.166C78.7682 19.62 78.9156 18.97 78.9156 18.216C78.9156 17.4533 78.7682 16.8033 78.4736 16.266C78.1876 15.72 77.7976 15.3083 77.3036 15.031C76.8182 14.7537 76.2722 14.615 75.6656 14.615C75.0589 14.615 74.5086 14.7537 74.0146 15.031C73.5206 15.3083 73.1306 15.72 72.8446 16.266C72.5586 16.8033 72.4156 17.4533 72.4156 18.216C72.4156 18.97 72.5629 19.62 72.8576 20.166C73.1522 20.7033 73.5466 21.115 74.0406 21.401C74.5432 21.6783 75.0849 21.817 75.6656 21.817ZM89.8681 19.594L92.1561 13.445H93.7031L89.9851 23H89.8031L87.2031 16.812L84.6161 22.987H84.4341L80.7161 13.445H82.2631L84.5511 19.594L87.1771 13.393H87.2551L89.8681 19.594Z" fill="white"/>
<path d="M26.6882 22.857L27.0235 21.9149L26.6882 22.857ZM25.5832 22.246L24.7099 21.7588L24.3417 22.4187L24.8761 22.9531L25.5832 22.246ZM26.2722 21.011L26.9431 20.2695L26.0112 19.4263L25.3989 20.5238L26.2722 21.011ZM27.1172 21.531L26.6864 22.4335L26.6987 22.4393L26.711 22.4448L27.1172 21.531ZM29.3532 21.466L28.7608 20.6603L28.755 20.6646L28.7493 20.6689L29.3532 21.466ZM29.5612 19.802L28.7496 20.3863L28.7496 20.3863L29.5612 19.802ZM28.9892 19.269L28.4419 20.106L28.4534 20.1135L28.4651 20.1207L28.9892 19.269ZM28.0272 18.736L28.4744 17.8416L28.4681 17.8384L28.0272 18.736ZM27.0132 18.19L26.4565 19.0207L26.4585 19.022L27.0132 18.19ZM26.5712 13.965L27.1929 14.7483L27.2004 14.7422L26.5712 13.965ZM30.9132 14.069L31.7773 14.5723L32.2063 13.8358L31.547 13.2955L30.9132 14.069ZM30.2242 15.252L29.4992 15.9407L30.4174 16.9073L31.0883 15.7553L30.2242 15.252ZM29.5222 14.81L29.1185 15.7249L29.1345 15.732L29.1508 15.7385L29.5222 14.81ZM27.5462 14.914L28.164 15.7003L28.1676 15.6975L27.5462 14.914ZM27.4162 16.5L26.6046 17.0843L26.6103 17.0922L26.6162 17.1L27.4162 16.5ZM28.0012 17.046L27.4465 17.878L27.4534 17.8827L27.4604 17.8872L28.0012 17.046ZM28.9762 17.618L29.4618 16.7438L29.4602 16.743L28.9762 17.618ZM29.8732 18.138L29.3432 18.986L29.3561 18.9941L29.3693 19.0018L29.8732 18.138ZM30.4582 18.58L29.7685 19.3041L29.7794 19.3145L29.7906 19.3246L30.4582 18.58ZM31.0692 19.386L31.9636 18.9388L31.9636 18.9388L31.0692 19.386ZM30.9002 21.895L30.0654 21.3444L30.0613 21.3507L30.0572 21.357L30.9002 21.895ZM29.8082 22.818L29.402 21.9042L29.3957 21.907L29.8082 22.818ZM28.2352 22.13C27.8344 22.13 27.4319 22.0603 27.0235 21.9149L26.3528 23.7991C26.9671 24.0177 27.596 24.13 28.2352 24.13V22.13ZM27.0235 21.9149C26.5668 21.7523 26.3614 21.61 26.2903 21.5389L24.8761 22.9531C25.2556 23.3326 25.7869 23.5976 26.3528 23.7991L27.0235 21.9149ZM26.4565 22.7332L27.1455 21.4982L25.3989 20.5238L24.7099 21.7588L26.4565 22.7332ZM25.6013 21.7525C25.8886 22.0126 26.271 22.2352 26.6864 22.4335L27.5479 20.6285C27.2007 20.4628 27.0197 20.3388 26.9431 20.2695L25.6013 21.7525ZM26.711 22.4448C27.2036 22.6638 27.7147 22.791 28.2352 22.791V20.791C28.045 20.791 27.8107 20.7449 27.5233 20.6172L26.711 22.4448ZM28.2352 22.791C28.8509 22.791 29.4538 22.6443 29.957 22.2631L28.7493 20.6689C28.6805 20.721 28.5381 20.791 28.2352 20.791V22.791ZM29.9456 22.2717C30.5091 21.8573 30.7952 21.2525 30.7952 20.569H28.7952C28.7952 20.5999 28.7922 20.6187 28.7902 20.6279C28.7883 20.6367 28.7869 20.6389 28.7877 20.6372C28.7885 20.6355 28.7891 20.6352 28.7873 20.6373C28.7852 20.6397 28.7778 20.6478 28.7608 20.6603L29.9456 22.2717ZM30.7952 20.569C30.7952 20.0874 30.6639 19.6222 30.3727 19.2177L28.7496 20.3863C28.7704 20.4152 28.7952 20.4612 28.7952 20.569H30.7952ZM30.3727 19.2177C30.1402 18.8948 29.8522 18.6259 29.5133 18.4173L28.4651 20.1207C28.5768 20.1894 28.6701 20.2759 28.7496 20.3863L30.3727 19.2177ZM29.5364 18.432C29.2639 18.2539 28.9039 18.0564 28.4744 17.8416L27.58 19.6304C27.9824 19.8316 28.2637 19.9895 28.4419 20.106L29.5364 18.432ZM28.4681 17.8384C27.9721 17.5948 27.6887 17.4385 27.5679 17.3579L26.4585 19.022C26.7017 19.1842 27.0943 19.3919 27.5863 19.6336L28.4681 17.8384ZM27.5698 17.3593C27.0011 16.9782 26.7522 16.507 26.7522 15.85H24.7522C24.7522 17.1863 25.3439 18.2752 26.4565 19.0207L27.5698 17.3593ZM26.7522 15.85C26.7522 15.27 26.9304 14.9566 27.1928 14.7483L25.9495 13.1817C25.1199 13.8401 24.7522 14.7833 24.7522 15.85H26.7522ZM27.2004 14.7422C27.5369 14.4698 27.9912 14.302 28.6382 14.302V12.302C27.6211 12.302 26.6975 12.5762 25.942 13.1878L27.2004 14.7422ZM28.6382 14.302C29.326 14.302 29.8534 14.4934 30.2793 14.8425L31.547 13.2955C30.725 12.6219 29.7357 12.302 28.6382 12.302V14.302ZM30.049 13.5657L29.36 14.7487L31.0883 15.7553L31.7773 14.5723L30.049 13.5657ZM30.9492 14.5633C30.6559 14.2546 30.2845 14.0379 29.8936 13.8815L29.1508 15.7385C29.3666 15.8248 29.4631 15.9028 29.4992 15.9407L30.9492 14.5633ZM29.9258 13.8951C29.4977 13.7062 29.0432 13.615 28.5732 13.615V15.615C28.7792 15.615 28.9573 15.6538 29.1185 15.7249L29.9258 13.8951ZM28.5732 13.615C27.993 13.615 27.406 13.7488 26.9248 14.1305L28.1676 15.6975C28.189 15.6805 28.2867 15.615 28.5732 15.615V13.615ZM26.9283 14.1277C26.3879 14.5523 26.1822 15.1636 26.1822 15.772H28.1822C28.1822 15.6858 28.196 15.6568 28.1938 15.662C28.1926 15.6649 28.1888 15.6724 28.1817 15.6818C28.1745 15.6912 28.1677 15.6974 28.164 15.7003L26.9283 14.1277ZM26.1822 15.772C26.1822 16.249 26.3253 16.6963 26.6046 17.0843L28.2277 15.9157C28.1951 15.8704 28.1822 15.8324 28.1822 15.772H26.1822ZM26.6162 17.1C26.8455 17.4058 27.1259 17.6643 27.4465 17.878L28.5559 16.2139C28.4085 16.1157 28.2988 16.0102 28.2162 15.9L26.6162 17.1ZM27.4604 17.8872C27.7293 18.06 28.0756 18.2626 28.4921 18.493L29.4602 16.743C29.062 16.5227 28.7584 16.344 28.5419 16.2048L27.4604 17.8872ZM28.4905 18.4922C28.8755 18.706 29.157 18.8696 29.3432 18.986L30.4032 17.29C30.1734 17.1464 29.8568 16.9633 29.4618 16.7438L28.4905 18.4922ZM29.3693 19.0018C29.5073 19.0823 29.6403 19.1821 29.7685 19.3041L31.1478 17.8559C30.912 17.6313 30.6551 17.4364 30.377 17.2742L29.3693 19.0018ZM29.7906 19.3246C29.9452 19.4631 30.0731 19.6299 30.1747 19.8332L31.9636 18.9388C31.7533 18.5181 31.4738 18.1475 31.1257 17.8354L29.7906 19.3246ZM30.1747 19.8332C30.2566 19.997 30.3032 20.1847 30.3032 20.413H32.3032C32.3032 19.896 32.1937 19.399 31.9636 18.9388L30.1747 19.8332ZM30.3032 20.413C30.3032 20.8357 30.2072 21.1294 30.0654 21.3444L31.7349 22.4456C32.1305 21.8459 32.3032 21.1516 32.3032 20.413H30.3032ZM30.0572 21.357C29.9093 21.5888 29.702 21.7709 29.402 21.9042L30.2143 23.7318C30.8503 23.4491 31.3711 23.0159 31.7431 22.433L30.0572 21.357ZM29.3957 21.907C29.086 22.0473 28.706 22.13 28.2352 22.13V24.13C28.943 24.13 29.6117 24.0047 30.2207 23.729L29.3957 21.907ZM32.8552 13.445V12.445H31.8552V13.445H32.8552ZM34.3112 13.445H35.3112V12.445H34.3112V13.445ZM34.3112 17.345H33.3112V18.345H34.3112V17.345ZM37.6782 17.345V18.345H38.6782V17.345H37.6782ZM37.6782 13.445V12.445H36.6782V13.445H37.6782ZM39.1342 13.445H40.1342V12.445H39.1342V13.445ZM39.1342 23V24H40.1342V23H39.1342ZM37.6782 23H36.6782V24H37.6782V23ZM37.6782 18.567H38.6782V17.567H37.6782V18.567ZM34.3112 18.567V17.567H33.3112V18.567H34.3112ZM34.3112 23V24H35.3112V23H34.3112ZM32.8552 23H31.8552V24H32.8552V23ZM32.8552 14.445H34.3112V12.445H32.8552V14.445ZM33.3112 13.445V17.345H35.3112V13.445H33.3112ZM34.3112 18.345H37.6782V16.345H34.3112V18.345ZM38.6782 17.345V13.445H36.6782V17.345H38.6782ZM37.6782 14.445H39.1342V12.445H37.6782V14.445ZM38.1342 13.445V23H40.1342V13.445H38.1342ZM39.1342 22H37.6782V24H39.1342V22ZM38.6782 23V18.567H36.6782V23H38.6782ZM37.6782 17.567H34.3112V19.567H37.6782V17.567ZM33.3112 18.567V23H35.3112V18.567H33.3112ZM34.3112 22H32.8552V24H34.3112V22ZM33.8552 23V13.445H31.8552V23H33.8552ZM43.1346 22.532L42.6463 23.4048L42.6586 23.4115L43.1346 22.532ZM41.3926 20.803L42.2571 20.3004L41.3926 20.803ZM41.3926 15.603L42.2545 16.11L42.2571 16.1056L41.3926 15.603ZM43.1346 13.887L42.6586 13.0075L42.6543 13.0099L43.1346 13.887ZM47.9316 13.887L47.4513 14.7641L47.4556 14.7665L47.9316 13.887ZM49.6866 15.603L48.8221 16.1056L48.8247 16.11L49.6866 15.603ZM49.6866 20.803L48.8221 20.3004L49.6866 20.803ZM47.9316 22.532L48.4119 23.4091L48.4155 23.4071L47.9316 22.532ZM47.1776 21.401L47.6672 22.2731L47.6786 22.2664L47.1776 21.401ZM48.3476 20.166L47.4676 19.6911L47.4648 19.6962L48.3476 20.166ZM48.3476 16.266L47.4618 16.73L47.4662 16.7385L47.4708 16.7468L48.3476 16.266ZM47.1776 15.031L46.6814 15.8993L46.6881 15.903L47.1776 15.031ZM43.8886 15.031L43.3991 14.159L43.8886 15.031ZM42.7186 16.266L43.6014 16.7359L43.6044 16.73L42.7186 16.266ZM42.7316 20.166L41.8515 20.6409L41.8548 20.6468L42.7316 20.166ZM43.9146 21.401L43.4136 22.2664L43.4225 22.2716L43.4315 22.2766L43.9146 21.401ZM45.5396 22.13C44.8331 22.13 44.1959 21.9693 43.6105 21.6525L42.6586 23.4115C43.5467 23.892 44.5127 24.13 45.5396 24.13V22.13ZM43.6229 21.6593C43.0565 21.3424 42.6036 20.8963 42.2571 20.3004L40.5281 21.3056C41.0483 22.2003 41.7566 22.9069 42.6463 23.4047L43.6229 21.6593ZM42.2571 20.3004C41.9248 19.7288 41.7426 19.0406 41.7426 18.203H39.7426C39.7426 19.3414 39.9937 20.3865 40.5281 21.3056L42.2571 20.3004ZM41.7426 18.203C41.7426 17.3547 41.9257 16.6691 42.2545 16.11L40.5307 15.096C39.9929 16.0102 39.7426 17.058 39.7426 18.203H41.7426ZM42.2571 16.1056C42.6026 15.5114 43.053 15.0718 43.6149 14.7641L42.6543 13.0099C41.7601 13.4996 41.0493 14.2039 40.5281 15.1004L42.2571 16.1056ZM43.6105 14.7665C44.1959 14.4497 44.8331 14.289 45.5396 14.289V12.289C44.5127 12.289 43.5467 12.527 42.6586 13.0075L43.6105 14.7665ZM45.5396 14.289C46.2461 14.289 46.8771 14.4497 47.4513 14.7641L48.4119 13.0099C47.5301 12.527 46.5665 12.289 45.5396 12.289V14.289ZM47.4556 14.7665C48.0257 15.075 48.4783 15.5143 48.8221 16.1056L50.5511 15.1004C50.0282 14.201 49.3108 13.4964 48.4075 13.0075L47.4556 14.7665ZM48.8247 16.11C49.1535 16.6691 49.3366 17.3547 49.3366 18.203H51.3366C51.3366 17.058 51.0863 16.0102 50.5485 15.096L48.8247 16.11ZM49.3366 18.203C49.3366 19.0406 49.1544 19.7288 48.8221 20.3004L50.5511 21.3056C51.0855 20.3865 51.3366 19.3414 51.3366 18.203H49.3366ZM48.8221 20.3004C48.4773 20.8934 48.0222 21.3392 47.4477 21.6569L48.4155 23.4071C49.3143 22.9101 50.0292 22.2033 50.5511 21.3056L48.8221 20.3004ZM47.4513 21.6549C46.8771 21.9693 46.2461 22.13 45.5396 22.13V24.13C46.5665 24.13 47.5301 23.892 48.4119 23.4091L47.4513 21.6549ZM45.5396 22.817C46.2992 22.817 47.0152 22.639 47.6671 22.273L46.6881 20.529C46.3519 20.7177 45.976 20.817 45.5396 20.817V22.817ZM47.6786 22.2664C48.3452 21.8805 48.8626 21.3267 49.2303 20.6358L47.4648 19.6962C47.2606 20.08 46.998 20.3495 46.6766 20.5356L47.6786 22.2664ZM49.2276 20.6409C49.6163 19.9208 49.7896 19.1004 49.7896 18.216H47.7896C47.7896 18.8396 47.6682 19.3192 47.4676 19.6911L49.2276 20.6409ZM49.7896 18.216C49.7896 17.3257 49.6173 16.5017 49.2244 15.7852L47.4708 16.7468C47.6672 17.105 47.7896 17.5809 47.7896 18.216H49.7896ZM49.2334 15.802C48.8658 15.1002 48.3448 14.5394 47.6671 14.159L46.6881 15.903C46.9984 16.0772 47.2574 16.3398 47.4618 16.73L49.2334 15.802ZM47.6737 14.1628C47.0246 13.7918 46.305 13.615 45.5396 13.615V15.615C45.9875 15.615 46.36 15.7155 46.6815 15.8992L47.6737 14.1628ZM45.5396 13.615C44.774 13.615 44.0531 13.7918 43.3991 14.159L44.3781 15.903C44.7121 15.7155 45.0918 15.615 45.5396 15.615V13.615ZM43.3991 14.159C42.7214 14.5394 42.2003 15.1002 41.8328 15.802L43.6044 16.73C43.8088 16.3398 44.0678 16.0772 44.3781 15.903L43.3991 14.159ZM41.8358 15.7962C41.4558 16.5102 41.2896 17.3301 41.2896 18.216H43.2896C43.2896 17.5765 43.4094 17.0965 43.6013 16.7358L41.8358 15.7962ZM41.2896 18.216C41.2896 19.1004 41.4629 19.9208 41.8516 20.6409L43.6116 19.6911C43.4109 19.3192 43.2896 18.8396 43.2896 18.216H41.2896ZM41.8548 20.6468C42.2305 21.332 42.7499 21.8822 43.4136 22.2664L44.4156 20.5356C44.0913 20.3478 43.822 20.0746 43.6084 19.6852L41.8548 20.6468ZM43.4315 22.2766C44.0839 22.6365 44.792 22.817 45.5396 22.817V20.817C45.1259 20.817 44.7506 20.7202 44.3977 20.5254L43.4315 22.2766ZM51.962 13.445V12.445H50.962V13.445H51.962ZM56.668 14.212L55.9844 14.9419L55.9904 14.9475L55.9965 14.953L56.668 14.212ZM56.603 18.645L57.2773 19.3835V19.3835L56.603 18.645ZM53.431 19.464V18.464H52.431V19.464H53.431ZM53.431 23V24H54.431V23H53.431ZM51.962 23H50.962V24H51.962V23ZM55.576 17.67L54.8318 17.0021V17.0021L55.576 17.67ZM53.431 14.719V13.719H52.431V14.719H53.431ZM53.431 18.177H52.431V19.177H53.431V18.177ZM51.962 14.445H54.068V12.445H51.962V14.445ZM54.068 14.445C55.144 14.445 55.7066 14.6817 55.9844 14.9419L57.3516 13.4821C56.5374 12.7196 55.3666 12.445 54.068 12.445V14.445ZM55.9965 14.953C56.3039 15.2316 56.5 15.6345 56.5 16.292H58.5C58.5 15.1815 58.1414 14.1977 57.3395 13.471L55.9965 14.953ZM56.5 16.292C56.5 17.1126 56.2673 17.5973 55.9287 17.9065L57.2773 19.3835C58.1347 18.6007 58.5 17.5167 58.5 16.292H56.5ZM55.9287 17.9065C55.5838 18.2215 54.9793 18.464 53.938 18.464V20.464C55.254 20.464 56.4262 20.1605 57.2773 19.3835L55.9287 17.9065ZM53.938 18.464H53.431V20.464H53.938V18.464ZM52.431 19.464V23H54.431V19.464H52.431ZM53.431 22H51.962V24H53.431V22ZM52.962 23V13.445H50.962V23H52.962ZM53.977 19.177C54.8388 19.177 55.7315 18.994 56.3202 18.3379L54.8318 17.0021C54.8139 17.022 54.6406 17.177 53.977 17.177V19.177ZM56.3202 18.3379C56.797 17.8067 57.031 17.1578 57.031 16.448H55.031C55.031 16.6915 54.9617 16.8573 54.8318 17.0021L56.3202 18.3379ZM57.031 16.448C57.031 15.7325 56.8186 15.0601 56.3253 14.5234L54.8527 15.8766C54.9488 15.9812 55.031 16.1408 55.031 16.448H57.031ZM56.3253 14.5234C55.7541 13.9018 54.9183 13.719 54.107 13.719V15.719C54.6824 15.719 54.8345 15.8569 54.8527 15.8766L56.3253 14.5234ZM54.107 13.719H53.431V15.719H54.107V13.719ZM52.431 14.719V18.177H54.431V14.719H52.431ZM53.431 19.177H53.977V17.177H53.431V19.177ZM63.4591 16.812L64.2011 16.1417L62.3567 14.0999L62.4598 16.8495L63.4591 16.812ZM63.4981 17.852H64.4981V17.8333L64.4974 17.8145L63.4981 17.852ZM63.4981 23V24H64.4981V23H63.4981ZM62.0421 23H61.0421V24H62.0421V23ZM62.0421 13.432V12.432H61.0421V13.432H62.0421ZM62.2241 13.432L62.9688 12.7646L62.6707 12.432H62.2241V13.432ZM67.8401 19.698L67.0954 20.3654L68.9727 22.46L68.8389 19.6504L67.8401 19.698ZM67.7881 18.606H66.7881V18.6298L66.7892 18.6536L67.7881 18.606ZM67.7881 13.445V12.445H66.7881V13.445H67.7881ZM69.2441 13.445H70.2441V12.445H69.2441V13.445ZM69.2441 23V24H70.2441V23H69.2441ZM69.0491 23L68.307 23.6703L68.6048 24H69.0491V23ZM62.4598 16.8495L62.4988 17.8895L64.4974 17.8145L64.4584 16.7745L62.4598 16.8495ZM62.4981 17.852V23H64.4981V17.852H62.4981ZM63.4981 22H62.0421V24H63.4981V22ZM63.0421 23V13.432H61.0421V23H63.0421ZM62.0421 14.432H62.2241V12.432H62.0421V14.432ZM61.4794 14.0994L67.0954 20.3654L68.5848 19.0306L62.9688 12.7646L61.4794 14.0994ZM68.8389 19.6504L68.7869 18.5584L66.7892 18.6536L66.8412 19.7456L68.8389 19.6504ZM68.7881 18.606V13.445H66.7881V18.606H68.7881ZM67.7881 14.445H69.2441V12.445H67.7881V14.445ZM68.2441 13.445V23H70.2441V13.445H68.2441ZM69.2441 22H69.0491V24H69.2441V22ZM69.7911 22.3297L64.2011 16.1417L62.717 17.4823L68.307 23.6703L69.7911 22.3297ZM73.2606 22.532L72.7722 23.4048L72.7846 23.4115L73.2606 22.532ZM71.5186 20.803L72.3831 20.3004L71.5186 20.803ZM71.5186 15.603L72.3805 16.11L72.3831 16.1056L71.5186 15.603ZM73.2606 13.887L72.7846 13.0075L72.7803 13.0099L73.2606 13.887ZM78.0576 13.887L77.5772 14.7641L77.5816 14.7665L78.0576 13.887ZM79.8126 15.603L78.9481 16.1056L78.9506 16.11L79.8126 15.603ZM79.8126 20.803L78.9481 20.3004L79.8126 20.803ZM78.0576 22.532L78.5379 23.4091L78.5415 23.4071L78.0576 22.532ZM77.3036 21.401L77.7931 22.2731L77.8046 22.2664L77.3036 21.401ZM78.4736 20.166L77.5935 19.6911L77.5908 19.6962L78.4736 20.166ZM78.4736 16.266L77.5877 16.73L77.5922 16.7385L77.5968 16.7468L78.4736 16.266ZM77.3036 15.031L76.8074 15.8993L76.814 15.903L77.3036 15.031ZM74.0146 15.031L73.525 14.159L74.0146 15.031ZM72.8446 16.266L73.7273 16.7359L73.7304 16.73L72.8446 16.266ZM72.8576 20.166L71.9775 20.6409L71.9808 20.6468L72.8576 20.166ZM74.0406 21.401L73.5395 22.2664L73.5485 22.2716L73.5575 22.2766L74.0406 21.401ZM75.6656 22.13C74.9591 22.13 74.3218 21.9693 73.7365 21.6525L72.7846 23.4115C73.6726 23.892 74.6387 24.13 75.6656 24.13V22.13ZM73.7489 21.6593C73.1825 21.3424 72.7296 20.8963 72.3831 20.3004L70.6541 21.3056C71.1742 22.2003 71.8826 22.9069 72.7723 23.4047L73.7489 21.6593ZM72.3831 20.3004C72.0508 19.7288 71.8686 19.0406 71.8686 18.203H69.8686C69.8686 19.3414 70.1197 20.3865 70.6541 21.3056L72.3831 20.3004ZM71.8686 18.203C71.8686 17.3547 72.0516 16.6691 72.3805 16.11L70.6566 15.096C70.1188 16.0102 69.8686 17.058 69.8686 18.203H71.8686ZM72.3831 16.1056C72.7286 15.5114 73.179 15.0718 73.7409 14.7641L72.7803 13.0099C71.8861 13.4996 71.1752 14.2039 70.6541 15.1004L72.3831 16.1056ZM73.7365 14.7665C74.3218 14.4497 74.9591 14.289 75.6656 14.289V12.289C74.6387 12.289 73.6726 12.527 72.7846 13.0075L73.7365 14.7665ZM75.6656 14.289C76.372 14.289 77.0031 14.4497 77.5773 14.7641L78.5379 13.0099C77.656 12.527 76.6924 12.289 75.6656 12.289V14.289ZM77.5816 14.7665C78.1517 15.075 78.6043 15.5143 78.9481 16.1056L80.6771 15.1004C80.1542 14.201 79.4368 13.4964 78.5335 13.0075L77.5816 14.7665ZM78.9506 16.11C79.2795 16.6691 79.4626 17.3547 79.4626 18.203H81.4626C81.4626 17.058 81.2123 16.0102 80.6745 15.096L78.9506 16.11ZM79.4626 18.203C79.4626 19.0406 79.2804 19.7288 78.9481 20.3004L80.6771 21.3056C81.2114 20.3865 81.4626 19.3414 81.4626 18.203H79.4626ZM78.9481 20.3004C78.6033 20.8934 78.1482 21.3392 77.5737 21.6569L78.5415 23.4071C79.4403 22.9101 80.1552 22.2033 80.6771 21.3056L78.9481 20.3004ZM77.5773 21.6549C77.0031 21.9693 76.372 22.13 75.6656 22.13V24.13C76.6924 24.13 77.656 23.892 78.5379 23.4091L77.5773 21.6549ZM75.6656 22.817C76.4252 22.817 77.1412 22.639 77.7931 22.273L76.814 20.529C76.4779 20.7177 76.102 20.817 75.6656 20.817V22.817ZM77.8046 22.2664C78.4711 21.8805 78.9886 21.3267 79.3563 20.6358L77.5908 19.6962C77.3865 20.08 77.124 20.3495 76.8025 20.5356L77.8046 22.2664ZM79.3536 20.6409C79.7423 19.9208 79.9156 19.1004 79.9156 18.216H77.9156C77.9156 18.8396 77.7942 19.3192 77.5935 19.6911L79.3536 20.6409ZM79.9156 18.216C79.9156 17.3257 79.7433 16.5017 79.3504 15.7852L77.5968 16.7468C77.7931 17.105 77.9156 17.5809 77.9156 18.216H79.9156ZM79.3594 15.802C78.9918 15.1002 78.4707 14.5394 77.7931 14.159L76.814 15.903C77.1244 16.0772 77.3833 16.3398 77.5877 16.73L79.3594 15.802ZM77.7997 14.1628C77.1505 13.7918 76.431 13.615 75.6656 13.615V15.615C76.1135 15.615 76.4859 15.7155 76.8074 15.8992L77.7997 14.1628ZM75.6656 13.615C74.9 13.615 74.1791 13.7918 73.525 14.159L74.5041 15.903C74.838 15.7155 75.2178 15.615 75.6656 15.615V13.615ZM73.525 14.159C72.8474 14.5394 72.3263 15.1002 71.9587 15.802L73.7304 16.73C73.9348 16.3398 74.1937 16.0772 74.5041 15.903L73.525 14.159ZM71.9618 15.7962C71.5818 16.5102 71.4156 17.3301 71.4156 18.216H73.4156C73.4156 17.5765 73.5354 17.0965 73.7273 16.7358L71.9618 15.7962ZM71.4156 18.216C71.4156 19.1004 71.5889 19.9208 71.9775 20.6409L73.7376 19.6911C73.5369 19.3192 73.4156 18.8396 73.4156 18.216H71.4156ZM71.9808 20.6468C72.3565 21.332 72.8759 21.8822 73.5395 22.2664L74.5416 20.5356C74.2173 20.3478 73.948 20.0746 73.7344 19.6852L71.9808 20.6468ZM73.5575 22.2766C74.2099 22.6365 74.918 22.817 75.6656 22.817V20.817C75.2518 20.817 74.8766 20.7202 74.5236 20.5254L73.5575 22.2766ZM89.8681 19.594L88.9465 19.9823L89.9258 22.3063L90.8053 19.9427L89.8681 19.594ZM92.1561 13.445V12.445H91.4612L91.2188 13.0963L92.1561 13.445ZM93.7031 13.445L94.635 13.8076L95.1652 12.445H93.7031V13.445ZM89.9851 23V24H90.669L90.917 23.3626L89.9851 23ZM89.8031 23L88.8811 23.3874L89.1385 24H89.8031V23ZM87.2031 16.812L88.125 16.4246L87.2017 14.2273L86.2807 16.4256L87.2031 16.812ZM84.6161 22.987V23.987H85.2813L85.5384 23.3734L84.6161 22.987ZM84.4341 22.987L83.5023 23.3501L83.7505 23.987H84.4341V22.987ZM80.7161 13.445V12.445H79.2532L79.7843 13.8081L80.7161 13.445ZM82.2631 13.445L83.2003 13.0963L82.958 12.445H82.2631V13.445ZM84.5511 19.594L83.6138 19.9427L84.491 22.3002L85.4719 19.984L84.5511 19.594ZM87.1771 13.393V12.393H86.5146L86.2562 13.003L87.1771 13.393ZM87.2551 13.393L88.1766 13.0047L87.9188 12.393H87.2551V13.393ZM90.8053 19.9427L93.0933 13.7937L91.2188 13.0963L88.9308 19.2453L90.8053 19.9427ZM92.1561 14.445H93.7031V12.445H92.1561V14.445ZM92.7711 13.0824L89.0531 22.6374L90.917 23.3626L94.635 13.8076L92.7711 13.0824ZM89.9851 22H89.8031V24H89.9851V22ZM90.725 22.6126L88.125 16.4246L86.2811 17.1994L88.8811 23.3874L90.725 22.6126ZM86.2807 16.4256L83.6937 22.6006L85.5384 23.3734L88.1254 17.1984L86.2807 16.4256ZM84.6161 21.987H84.4341V23.987H84.6161V21.987ZM85.3658 22.6239L81.6478 13.0819L79.7843 13.8081L83.5023 23.3501L85.3658 22.6239ZM80.7161 14.445H82.2631V12.445H80.7161V14.445ZM81.3258 13.7937L83.6138 19.9427L85.4883 19.2453L83.2003 13.0963L81.3258 13.7937ZM85.4719 19.984L88.0979 13.783L86.2562 13.003L83.6302 19.204L85.4719 19.984ZM87.1771 14.393H87.2551V12.393H87.1771V14.393ZM86.3335 13.7813L88.9465 19.9823L90.7896 19.2057L88.1766 13.0047L86.3335 13.7813Z" fill="#BFA4A4"/>
<rect x="0.5" y="0.5" width="118.115" height="34" stroke="#FBFBFB"/>
</svg>
