<svg width="20" height="20" viewBox="0 0 20 20" fill="none" xmlns="http://www.w3.org/2000/svg">
<path d="M10 0C10.3788 0 10.7251 0.214002 10.8945 0.552786L13.4734 5.7106L19.144 6.53541C19.5206 6.5902 19.8335 6.85402 19.9511 7.21599C20.0687 7.57796 19.9706 7.97531 19.6981 8.241L15.571 12.2649L16.4994 17.9385C16.5608 18.3135 16.4043 18.6908 16.0957 18.9124C15.787 19.1339 15.3794 19.1614 15.0438 18.9834L10 16.3071L4.95624 18.9834C4.62062 19.1614 4.21306 19.1339 3.9044 18.9124C3.59573 18.6908 3.4393 18.3135 3.50065 17.9385L4.42906 12.2649L0.301929 8.241C0.0294234 7.97531 -0.068637 7.57796 0.0489696 7.21599C0.166576 6.85402 0.479458 6.5902 0.856089 6.53541L6.5267 5.7106L9.1056 0.552786C9.27499 0.214002 9.62126 0 10 0ZM10 3.23607L8.08196 7.07221C7.93561 7.36491 7.65531 7.56748 7.33147 7.61459L3.14842 8.22303L6.19813 11.1965C6.43182 11.4243 6.53961 11.7519 6.4869 12.074L5.80004 16.2715L9.53131 14.2917C9.82444 14.1361 10.1756 14.1361 10.4687 14.2917L14.2 16.2715L13.5132 12.074C13.4604 11.7519 13.5682 11.4243 13.8019 11.1965L16.8516 8.22303L12.6686 7.61459C12.3448 7.56748 12.0645 7.36491 11.9181 7.07221L10 3.23607Z" fill="#0D0D0D"/>
</svg>
