<svg width="135" height="40" viewBox="0 0 135 40" fill="none" xmlns="http://www.w3.org/2000/svg">
<path d="M24.1651 8.75L22 5L19.8349 8.75L6.84456 31.25L4.67949 35H9.00962H34.9904H39.3205L37.1554 31.25L24.1651 8.75Z" fill="#3F56A0"/>
<path d="M24.1651 8.75L22 5L19.8349 8.75L6.84456 31.25L4.67949 35H9.00962H34.9904H39.3205L37.1554 31.25L24.1651 8.75Z" stroke="white" stroke-width="5"/>
<path d="M24.1651 8.75L22 5L19.8349 8.75L6.84456 31.25L4.67949 35H9.00962H34.9904H39.3205L37.1554 31.25L24.1651 8.75Z" stroke="black" stroke-opacity="0.2" stroke-width="5"/>
<path d="M120 10L132.99 32.5H107.01L120 10Z" fill="#F0CE55"/>
<path d="M56 10L68.9904 32.5H43.0096L56 10Z" fill="#9CC6F7"/>
<path d="M90 10L102.99 32.5H77.0096L90 10Z" fill="#EB662D"/>
</svg>
