<svg width="139" height="39" viewBox="0 0 139 39" fill="none" xmlns="http://www.w3.org/2000/svg">
<path d="M56 9L68.9904 31.5H43.0096L56 9Z" fill="#A1C556"/>
<path d="M90 9L102.99 31.5H77.0096L90 9Z" fill="#5D5FEF"/>
<path d="M124 9L136.99 31.5H111.01L124 9Z" fill="#F178B6"/>
<path d="M21.732 7L20 4L18.2679 7L5.27757 29.5L3.54552 32.5H7.00962H32.9904H36.4545L34.7224 29.5L21.732 7Z" fill="#9CC6F7"/>
<path d="M21.732 7L20 4L18.2679 7L5.27757 29.5L3.54552 32.5H7.00962H32.9904H36.4545L34.7224 29.5L21.732 7Z" stroke="white" stroke-width="4"/>
<path d="M21.732 7L20 4L18.2679 7L5.27757 29.5L3.54552 32.5H7.00962H32.9904H36.4545L34.7224 29.5L21.732 7Z" stroke="black" stroke-opacity="0.2" stroke-width="4"/>
</svg>
