<svg width="136" height="38" viewBox="0 0 136 38" fill="none" xmlns="http://www.w3.org/2000/svg">
<path d="M21.732 7L20 4L18.2679 7L5.27757 29.5L3.54552 32.5H7.00962H32.9904H36.4545L34.7224 29.5L21.732 7Z" fill="#FDF5AA" fill-opacity="0.46"/>
<path d="M21.732 7L20 4L18.2679 7L5.27757 29.5L3.54552 32.5H7.00962H32.9904H36.4545L34.7224 29.5L21.732 7Z" stroke="white" stroke-width="4"/>
<path d="M21.732 7L20 4L18.2679 7L5.27757 29.5L3.54552 32.5H7.00962H32.9904H36.4545L34.7224 29.5L21.732 7Z" stroke="black" stroke-opacity="0.2" stroke-width="4"/>
<path d="M53 8L65.9904 30.5H40.0096L53 8Z" fill="#FCDDEC"/>
<path d="M87 8L99.9904 30.5H74.0096L87 8Z" fill="#FA5656"/>
<path d="M121 8L133.99 30.5H108.01L121 8Z" fill="#39E389"/>
</svg>
