<svg width="177" height="40" viewBox="0 0 177 40" fill="none" xmlns="http://www.w3.org/2000/svg">
<rect x="0.5" y="1.0498" width="176" height="38" stroke="#B6BCC5"/>
<path d="M62.1131 21.8818L64.5771 15.2598H66.2431L62.2391 25.5498H62.0431L59.2431 18.8858L56.4571 25.5358H56.2611L52.2571 15.2598H53.9231L56.3871 21.8818L59.2151 15.2038H59.2991L62.1131 21.8818ZM66.5282 19.1238H68.0402V20.3838C68.1895 19.9545 68.4322 19.6091 68.7682 19.3478C69.1042 19.0865 69.4868 18.9558 69.9162 18.9558C70.2148 18.9558 70.4202 18.9838 70.5322 19.0398L70.3222 20.5658C70.2382 20.5098 70.0562 20.4818 69.7762 20.4818C69.3375 20.4818 68.9362 20.6218 68.5722 20.9018C68.2175 21.1818 68.0402 21.6298 68.0402 22.2458V25.5498H66.5282V19.1238ZM71.7134 19.1238H73.2814V25.5498H71.7134V19.1238ZM72.4834 17.9198C72.1941 17.9198 71.9514 17.8218 71.7554 17.6258C71.5594 17.4298 71.4614 17.1871 71.4614 16.8978C71.4614 16.6365 71.5594 16.4125 71.7554 16.2258C71.9514 16.0391 72.1941 15.9458 72.4834 15.9458C72.7634 15.9458 73.0014 16.0391 73.1974 16.2258C73.3934 16.4125 73.4914 16.6365 73.4914 16.8978C73.4914 17.1871 73.3934 17.4298 73.1974 17.6258C73.0108 17.8218 72.7728 17.9198 72.4834 17.9198ZM75.9349 20.3558H74.8009V19.1238H75.9349V16.5058L77.4609 16.1698V19.1238H78.9449V20.3558H77.4609V25.5498H75.9349V20.3558ZM83.2117 25.6898C82.4464 25.6898 81.807 25.5405 81.2937 25.2418C80.7804 24.9338 80.4024 24.5278 80.1597 24.0238C79.917 23.5105 79.7957 22.9505 79.7957 22.3438C79.7957 21.6625 79.9357 21.0651 80.2157 20.5518C80.505 20.0385 80.9017 19.6465 81.4057 19.3758C81.9097 19.0958 82.479 18.9558 83.1137 18.9558C84.103 18.9558 84.8357 19.2311 85.3117 19.7818C85.797 20.3231 86.0397 21.0885 86.0397 22.0778C86.0397 22.3298 86.0257 22.5911 85.9977 22.8618H81.3777C81.4804 23.4311 81.681 23.8418 81.9797 24.0938C82.2877 24.3458 82.7124 24.4718 83.2537 24.4718C83.7017 24.4718 84.0704 24.4345 84.3597 24.3598C84.649 24.2851 84.915 24.1825 85.1577 24.0518L85.6197 25.1298C85.3864 25.2791 85.069 25.4098 84.6677 25.5218C84.2664 25.6338 83.781 25.6898 83.2117 25.6898ZM84.5697 21.8118C84.579 21.2331 84.453 20.8271 84.1917 20.5938C83.9304 20.3511 83.557 20.2298 83.0717 20.2298C82.0917 20.2298 81.527 20.7571 81.3777 21.8118H84.5697ZM93.8985 25.6898C93.3198 25.6898 92.7832 25.5545 92.2885 25.2838C91.8032 25.0038 91.4112 24.6118 91.1125 24.1078C90.8232 23.5945 90.6785 22.9971 90.6785 22.3158C90.6785 21.6438 90.8045 21.0558 91.0565 20.5518C91.3178 20.0478 91.6865 19.6558 92.1625 19.3758C92.6385 19.0958 93.1985 18.9558 93.8425 18.9558C94.2158 18.9558 94.5658 19.0211 94.8925 19.1518C95.2192 19.2825 95.4945 19.4458 95.7185 19.6418C95.9425 19.8285 96.0918 20.0151 96.1665 20.2018L96.1945 19.1238H97.6365V25.5498H96.2085L96.1805 24.4158C96.0218 24.7518 95.7325 25.0505 95.3125 25.3118C94.8925 25.5638 94.4212 25.6898 93.8985 25.6898ZM94.1505 24.4298C94.6825 24.4298 95.1305 24.2478 95.4945 23.8838C95.8585 23.5105 96.0405 23.0251 96.0405 22.4278V22.3298C96.0405 21.9285 95.9565 21.5691 95.7885 21.2518C95.6205 20.9345 95.3918 20.6871 95.1025 20.5098C94.8132 20.3325 94.4958 20.2438 94.1505 20.2438C93.5532 20.2438 93.0912 20.4398 92.7645 20.8318C92.4378 21.2145 92.2745 21.7138 92.2745 22.3298C92.2745 22.9551 92.4332 23.4638 92.7505 23.8558C93.0772 24.2385 93.5438 24.4298 94.1505 24.4298ZM103.059 19.1238H104.571V20.3838C104.721 19.9545 104.963 19.6091 105.299 19.3478C105.635 19.0865 106.018 18.9558 106.447 18.9558C106.746 18.9558 106.951 18.9838 107.063 19.0398L106.853 20.5658C106.769 20.5098 106.587 20.4818 106.307 20.4818C105.869 20.4818 105.467 20.6218 105.103 20.9018C104.749 21.1818 104.571 21.6298 104.571 22.2458V25.5498H103.059V19.1238ZM111.171 25.6898C110.405 25.6898 109.766 25.5405 109.253 25.2418C108.739 24.9338 108.361 24.5278 108.119 24.0238C107.876 23.5105 107.755 22.9505 107.755 22.3438C107.755 21.6625 107.895 21.0651 108.175 20.5518C108.464 20.0385 108.861 19.6465 109.365 19.3758C109.869 19.0958 110.438 18.9558 111.073 18.9558C112.062 18.9558 112.795 19.2311 113.271 19.7818C113.756 20.3231 113.999 21.0885 113.999 22.0778C113.999 22.3298 113.985 22.5911 113.957 22.8618H109.337C109.439 23.4311 109.64 23.8418 109.939 24.0938C110.247 24.3458 110.671 24.4718 111.213 24.4718C111.661 24.4718 112.029 24.4345 112.319 24.3598C112.608 24.2851 112.874 24.1825 113.117 24.0518L113.579 25.1298C113.345 25.2791 113.028 25.4098 112.627 25.5218C112.225 25.6338 111.74 25.6898 111.171 25.6898ZM112.529 21.8118C112.538 21.2331 112.412 20.8271 112.151 20.5938C111.889 20.3511 111.516 20.2298 111.031 20.2298C110.051 20.2298 109.486 20.7571 109.337 21.8118H112.529ZM114.562 19.1238H116.284L117.67 22.0218L118.118 23.1838L118.566 22.0218L119.938 19.1238H121.618L118.244 25.5498H117.95L114.562 19.1238ZM122.696 19.1238H124.264V25.5498H122.696V19.1238ZM123.466 17.9198C123.177 17.9198 122.934 17.8218 122.738 17.6258C122.542 17.4298 122.444 17.1871 122.444 16.8978C122.444 16.6365 122.542 16.4125 122.738 16.2258C122.934 16.0391 123.177 15.9458 123.466 15.9458C123.746 15.9458 123.984 16.0391 124.18 16.2258C124.376 16.4125 124.474 16.6365 124.474 16.8978C124.474 17.1871 124.376 17.4298 124.18 17.6258C123.993 17.8218 123.755 17.9198 123.466 17.9198ZM129.395 25.6898C128.63 25.6898 127.991 25.5405 127.477 25.2418C126.964 24.9338 126.586 24.5278 126.343 24.0238C126.101 23.5105 125.979 22.9505 125.979 22.3438C125.979 21.6625 126.119 21.0651 126.399 20.5518C126.689 20.0385 127.085 19.6465 127.589 19.3758C128.093 19.0958 128.663 18.9558 129.297 18.9558C130.287 18.9558 131.019 19.2311 131.495 19.7818C131.981 20.3231 132.223 21.0885 132.223 22.0778C132.223 22.3298 132.209 22.5911 132.181 22.8618H127.561C127.664 23.4311 127.865 23.8418 128.163 24.0938C128.471 24.3458 128.896 24.4718 129.437 24.4718C129.885 24.4718 130.254 24.4345 130.543 24.3598C130.833 24.2851 131.099 24.1825 131.341 24.0518L131.803 25.1298C131.57 25.2791 131.253 25.4098 130.851 25.5218C130.45 25.6338 129.965 25.6898 129.395 25.6898ZM130.753 21.8118C130.763 21.2331 130.637 20.8271 130.375 20.5938C130.114 20.3511 129.741 20.2298 129.255 20.2298C128.275 20.2298 127.711 20.7571 127.561 21.8118H130.753ZM137.728 21.9798L135.824 25.5498H135.558L132.856 19.1238H134.48L135.866 22.8618L137.7 19.1238H137.756L139.604 22.8338L140.99 19.1238H142.586L139.898 25.5498H139.632L137.728 21.9798Z" fill="#0D0D0D"/>
<path d="M39.8985 12.3647C40.2077 12.0555 40.709 12.0555 41.0181 12.3647L44.1848 15.5314C44.494 15.8405 44.494 16.3418 44.1848 16.6509L33.8931 26.9426C33.7447 27.0911 33.5433 27.1745 33.3333 27.1745H30.1667C29.7294 27.1745 29.375 26.82 29.375 26.3828V23.2161C29.375 23.0062 29.4584 22.8048 29.6069 22.6564L37.5234 14.7399L39.8985 12.3647ZM38.0833 16.4191L30.9583 23.5441V25.5911H33.0054L40.1304 18.4661L38.0833 16.4191ZM41.25 17.3466L42.5054 16.0911L40.4583 14.0441L39.2029 15.2995L41.25 17.3466Z" fill="#0D0D0D"/>
</svg>
