<svg width="40" height="55" viewBox="0 0 40 55" fill="none" xmlns="http://www.w3.org/2000/svg">
<path d="M0 0H39.8606V55L19.9303 36.6667L0 55V0Z" fill="#FF5353"/>
<path d="M15.7704 24H14.2939V20.209H10.4794V24H8.99701V15.4688H10.4794V19.0195H14.2939V15.4688H15.7704V24ZM24.3369 19.957C24.3369 20.793 24.1923 21.5273 23.9033 22.1602C23.6142 22.7891 23.2001 23.2734 22.6611 23.6133C22.1259 23.9492 21.5087 24.1172 20.8095 24.1172C20.1181 24.1172 19.5009 23.9492 18.9579 23.6133C18.4189 23.2734 18.0009 22.791 17.704 22.166C17.4111 21.541 17.2626 20.8203 17.2587 20.0039V19.5234C17.2587 18.6914 17.4052 17.957 17.6982 17.3203C17.9951 16.6836 18.4111 16.1973 18.9462 15.8613C19.4853 15.5215 20.1025 15.3516 20.7978 15.3516C21.4931 15.3516 22.1083 15.5195 22.6435 15.8555C23.1826 16.1875 23.5986 16.668 23.8915 17.2969C24.1845 17.9219 24.3329 18.6504 24.3369 19.4824V19.957ZM22.8544 19.5117C22.8544 18.5664 22.6747 17.8418 22.3154 17.3379C21.9599 16.834 21.454 16.582 20.7978 16.582C20.1572 16.582 19.6552 16.834 19.2919 17.3379C18.9326 17.8379 18.749 18.5469 18.7411 19.4648V19.957C18.7411 20.8945 18.9228 21.6191 19.2861 22.1309C19.6533 22.6426 20.1611 22.8984 20.8095 22.8984C21.4658 22.8984 21.9697 22.6484 22.3212 22.1484C22.6767 21.6484 22.8544 20.918 22.8544 19.957V19.5117ZM31.4736 16.6641H28.8134V24H27.3427V16.6641H24.706V15.4688H31.4736V16.6641Z" fill="white"/>
</svg>
