<svg width="14" height="17" viewBox="0 0 14 17" fill="none" xmlns="http://www.w3.org/2000/svg">
<path d="M13.9964 14.6951L12.9949 3.73374C12.9734 3.49039 12.7624 3.30613 12.5156 3.30613H10.4553C10.4267 1.47751 8.8886 0 7 0C5.11139 0 3.57333 1.47751 3.54471 3.30613H1.48441C1.23403 3.30613 1.02657 3.49039 1.00511 3.73374L0.00357698 14.6951C0.00357698 14.709 0 14.7229 0 14.7368C0 15.9849 1.1768 17 2.62545 17H11.3746C12.8232 17 14 15.9849 14 14.7368C14 14.7229 14 14.709 13.9964 14.6951ZM7 0.93865C8.35565 0.93865 9.46091 1.9955 9.48952 3.30613H4.51047C4.53909 1.9955 5.64435 0.93865 7 0.93865ZM11.3746 16.0613H2.62545C1.71691 16.0613 0.980072 15.4773 0.965764 14.7577L1.92437 4.24826H3.54113V5.67362C3.54113 5.93436 3.75575 6.14294 4.02402 6.14294C4.29228 6.14294 4.5069 5.93436 4.5069 5.67362V4.24826H9.48952V5.67362C9.48952 5.93436 9.70414 6.14294 9.97241 6.14294C10.2407 6.14294 10.4553 5.93436 10.4553 5.67362V4.24826H12.072L13.0342 14.7577C13.0199 15.4773 12.2795 16.0613 11.3746 16.0613Z" fill="white"/>
</svg>
