<svg width="15" height="19" viewBox="0 0 15 19" fill="none" xmlns="http://www.w3.org/2000/svg">
<path d="M14.9962 16.4239L13.9231 4.17301C13.9001 3.90102 13.674 3.69509 13.4096 3.69509H11.2021C11.1714 1.65133 9.5235 0 7.5 0C5.47649 0 3.82856 1.65133 3.7979 3.69509H1.59044C1.32218 3.69509 1.0999 3.90102 1.0769 4.17301L0.00383248 16.4239C0.00383248 16.4395 0 16.455 0 16.4706C0 17.8654 1.26086 19 2.81298 19H12.187C13.7391 19 15 17.8654 15 16.4706C15 16.455 15 16.4395 14.9962 16.4239ZM7.5 1.04908C8.95248 1.04908 10.1367 2.23027 10.1673 3.69509H4.83265C4.86331 2.23027 6.04752 1.04908 7.5 1.04908ZM12.187 17.9509H2.81298C1.83955 17.9509 1.05008 17.2982 1.03475 16.4939L2.06183 4.74806H3.79407V6.3411C3.79407 6.63251 4.02402 6.86564 4.31145 6.86564C4.59888 6.86564 4.82882 6.63251 4.82882 6.3411V4.74806H10.1673V6.3411C10.1673 6.63251 10.3973 6.86564 10.6847 6.86564C10.9722 6.86564 11.2021 6.63251 11.2021 6.3411V4.74806H12.9343L13.9653 16.4939C13.9499 17.2982 13.1566 17.9509 12.187 17.9509Z" fill="white"/>
</svg>
