<svg width="31" height="34" viewBox="0 0 31 34" fill="none" xmlns="http://www.w3.org/2000/svg">
<path d="M29.3492 0.448768C29.3045 0.285733 29.1932 0.14856 29.042 0.0704737C28.7436 -0.0860329 28.3738 0.0268695 28.2159 0.322642C28.2155 0.323395 28.215 0.324148 28.2147 0.324902C28.2147 0.34164 25.1184 6.29726 15.6133 7.33506C14.3735 7.4662 13.1615 7.78692 12.0207 8.28581C9.97859 9.16602 8.29207 10.6979 7.2293 12.6379C6.23709 14.4601 5.82616 16.5381 6.05087 18.5968C6.21641 20.0976 6.72197 21.5419 7.52981 22.8217C5.84153 24.0235 0.48628 28.1781 0.00342969 32.6372C-0.0320243 32.97 0.211427 33.2683 0.547058 33.3034C0.882774 33.3386 1.18354 33.0972 1.219 32.7644C1.66133 28.784 6.68567 24.9241 8.2524 23.8059C10.1332 26.0958 12.9492 27.388 15.9712 27.5989C18.0052 27.729 20.0416 27.3851 21.9174 26.5946C23.9536 25.7475 25.752 24.4229 27.1578 22.7346C30.7809 18.3826 32.5063 11.0678 29.3492 0.448768ZM8.60356 22.2224C8.37058 21.8586 8.1652 21.4781 7.98903 21.0842C7.61828 20.2529 7.37913 19.3699 7.27995 18.4663C7.07313 16.6531 7.42632 14.8203 8.29292 13.2103C9.22958 11.5035 10.7154 10.1565 12.5136 9.38387C13.5417 8.94005 14.6329 8.65666 15.7484 8.54359C22.0221 7.87404 25.7127 5.10547 27.6171 3.09683C26.4981 6.74912 24.5717 10.1081 21.9782 12.9291L21.6068 9.21983C21.5878 8.88573 21.2993 8.63004 20.9623 8.64879C20.6254 8.66754 20.3675 8.9536 20.3864 9.28771C20.3873 9.30419 20.3889 9.32068 20.3912 9.337L20.8673 14.1042C18.0276 16.9598 14.0804 19.8288 8.60356 22.2224ZM26.2124 21.958V21.9613C24.935 23.5032 23.2988 24.7142 21.4447 25.4898C19.7396 26.2042 17.889 26.5116 16.0422 26.387C13.4711 26.2579 11.0585 25.1166 9.33966 23.2167C11.354 22.333 13.3016 21.3071 15.1676 20.1468L20.533 21.1512C20.8664 21.203 21.1791 20.9769 21.2314 20.6463C21.2818 20.3274 21.0711 20.0253 20.7525 19.9594L16.6297 19.186C18.5333 17.8898 20.3053 16.4132 21.9208 14.7771C21.9504 14.7518 21.9775 14.7238 22.0018 14.6934C26.263 10.2945 28.0763 5.9424 28.8326 3.26421C30.9193 12.0888 29.3222 18.2286 26.2124 21.958Z" fill="white"/>
</svg>
