<svg width="38" height="46" viewBox="0 0 38 46" fill="none" xmlns="http://www.w3.org/2000/svg">
<path d="M19.3213 1.71423L19.3212 1.71431L2.1068 8.97428L19.3213 1.71423ZM19.3213 1.71423C19.3224 1.71377 19.3235 1.71332 19.3246 1.71287M19.3213 1.71423L19.3246 1.71287M19.3246 1.71287C19.3796 1.69064 19.4398 1.69004 19.4956 1.71154C19.5057 1.71593 19.5154 1.71995 19.5247 1.72364L36.717 8.9743C36.717 8.97431 36.717 8.97431 36.717 8.97432C36.8076 9.01254 36.8829 9.11196 36.8829 9.24009V18.0656C36.8829 29.6221 30.0072 39.9998 19.5013 44.3556C19.4434 44.3796 19.3801 44.3795 19.3226 44.3557L19.3225 44.3556C8.8163 39.9997 1.9408 29.622 1.9408 18.0656V9.24009C1.9408 9.11254 2.01555 9.01331 2.10573 8.97473L19.3246 1.71287ZM19.0033 43.6117L19.4117 43.7946L19.8202 43.6118L20.0245 43.5204L20.0246 43.5204C30.0654 39.0269 36.3697 28.9703 36.3697 18.0656V10.4313V10.0995V9.43593L35.7583 9.17808L35.4526 9.04916L19.9947 2.52992L19.9947 2.52991L19.8004 2.44797L19.4118 2.28406L19.0232 2.44797L18.8289 2.52991L18.8289 2.52992L3.37107 9.04916L3.37105 9.04917L3.06537 9.17808L2.45395 9.43593V10.0995V10.4313V18.0656C2.45395 29.2686 9.02818 39.1476 18.7991 43.5203C18.7991 43.5203 18.7991 43.5204 18.7991 43.5204L19.0033 43.6117ZM16.4014 25.1322L16.4014 25.1323L16.7577 25.4942L17.4703 26.218L18.1829 25.4942L18.5392 25.1323L18.5392 25.1323L26.0893 17.4632C26.0893 17.4632 26.0893 17.4632 26.0893 17.4632C26.1877 17.3632 26.3373 17.3632 26.4357 17.4632C26.5468 17.5761 26.5468 17.7688 26.4356 17.8817L26.1482 18.1736V18.1738L17.6435 26.8126C17.6435 26.8126 17.6435 26.8126 17.6435 26.8126C17.5452 26.9124 17.3956 26.9126 17.2971 26.8127C17.2971 26.8126 17.2971 26.8126 17.297 26.8126L12.388 21.8261L11.6754 22.5276L12.388 21.826C12.2768 21.713 12.2769 21.5203 12.3879 21.4075L12.388 21.4075C12.4865 21.3074 12.6361 21.3076 12.7342 21.4073L13.0281 21.7058H13.0282L16.4014 25.1322Z" stroke="black" stroke-width="2"/>
</svg>
