<svg width="63" height="46" viewBox="0 0 63 46" fill="none" xmlns="http://www.w3.org/2000/svg">
<path d="M9.38725 39.4945C9.38725 36.5044 11.7763 34.0996 14.6776 34.0996C17.579 34.0996 19.9681 36.5044 19.9681 39.4945C19.9681 42.4846 17.5791 44.8894 14.6776 44.8894C11.7763 44.8894 9.38725 42.4846 9.38725 39.4945ZM9.4841 39.4945C9.4841 42.3823 11.797 44.7577 14.6776 44.7577C17.5582 44.7577 19.8712 42.3823 19.8712 39.4945C19.8712 36.6067 17.5582 34.2313 14.6776 34.2313C11.7972 34.2313 9.4841 36.6066 9.4841 39.4945Z" stroke="black" stroke-width="2"/>
<path d="M45.0328 39.4945C45.0328 36.5044 47.4218 34.0996 50.3232 34.0996C53.2246 34.0996 55.6136 36.5044 55.6136 39.4945C55.6136 42.4846 53.2246 44.8894 50.3232 44.8894C47.4218 44.8894 45.0328 42.4846 45.0328 39.4945ZM45.1296 39.4945C45.1296 42.3823 47.4426 44.7577 50.3232 44.7577C53.2038 44.7577 55.5168 42.3823 55.5168 39.4945C55.5168 36.6067 53.2038 34.2313 50.3232 34.2313C47.4428 34.2313 45.1296 36.6066 45.1296 39.4945Z" stroke="black" stroke-width="2"/>
<path d="M61.8921 27.7284L61.8936 27.7307C61.8987 27.7387 61.9039 27.7532 61.9039 27.7699V27.7704V39.4944C61.9039 39.5193 61.8951 39.536 61.8842 39.5471C61.8786 39.5528 61.8733 39.556 61.8694 39.5577C61.8662 39.559 61.8622 39.5602 61.8555 39.5602H56.5651V39.4287H60.8072H61.8072V38.4287V28.0838V27.7942L61.6524 27.5493L52.6927 13.3804L52.3983 12.9149H51.8475H41.936H40.936V13.9149V38.4284V39.4284H41.936H44.0812V39.5601H40.8876C40.8809 39.5601 40.8769 39.5589 40.8737 39.5576C40.8698 39.5559 40.8645 39.5527 40.8589 39.547C40.848 39.5359 40.8392 39.5192 40.8392 39.4943V12.849C40.8392 12.825 40.8477 12.8081 40.8591 12.7965C40.8649 12.7906 40.8704 12.7873 40.8743 12.7857C40.8774 12.7843 40.8812 12.7832 40.8876 12.7832H52.4199C52.4288 12.7832 52.4445 12.7878 52.4567 12.8072L61.8921 27.7284Z" stroke="black" stroke-width="2"/>
<path d="M46.1296 17.1781H45.1296V18.1781V24.6386V25.6386V25.6387H46.1296V26.6386H59.8073V26.7703H45.0813C45.0746 26.7703 45.0706 26.7691 45.0674 26.7678C45.0635 26.7661 45.0582 26.7629 45.0526 26.7572C45.0417 26.7461 45.0329 26.7294 45.0329 26.7045V17.1122C45.0329 17.0882 45.0414 17.0713 45.0528 17.0597C45.0586 17.0538 45.0641 17.0505 45.068 17.0489C45.0711 17.0475 45.0749 17.0464 45.0813 17.0464H53.5169V17.1781H46.1296Z" stroke="black" stroke-width="2"/>
<path d="M1.09684 38.4288V39.4288H2.09684H8.4356V39.5604H1.04836C1.04212 39.5604 1.03834 39.5593 1.03506 39.5579C1.03108 39.5562 1.02558 39.5529 1.0198 39.547C1.00854 39.5356 1 39.5189 1 39.4947V5.3885C1 5.36516 1.00831 5.34827 1.02005 5.33633C1.02599 5.33029 1.03162 5.32691 1.0356 5.32519C1.03885 5.32379 1.04246 5.3228 1.04836 5.3228H40.8876C40.894 5.3228 40.8978 5.3239 40.901 5.32526C40.9049 5.32693 40.9103 5.33022 40.9161 5.33609C40.9275 5.34764 40.936 5.36448 40.936 5.3885V39.4947C40.936 39.5196 40.9272 39.5362 40.9164 39.5473C40.9108 39.553 40.9054 39.5562 40.9015 39.5579C40.8983 39.5592 40.8944 39.5604 40.8876 39.5604H20.9196V39.4288H39.8392H40.8392V38.4288V6.4543V5.4543H39.8392H2.09684H1.09684V6.4543V38.4288Z" stroke="black" stroke-width="2"/>
<path d="M2.04996 35.2981V35.1655H6.34036V35.2981H2.04996Z" stroke="black" stroke-width="2"/>
<path d="M23.0164 35.2981V35.1655H38.8392V35.2981H23.0164Z" stroke="black" stroke-width="2"/>
<path d="M58.662 35.2981V35.1655H60.8555V35.2981H58.662Z" stroke="black" stroke-width="2"/>
<path d="M5.19356 9.7185V9.5859H39.8876V9.7185H5.19356Z" stroke="black" stroke-width="2"/>
<path d="M14.6292 39.5613V39.4287H14.726V39.5613H14.6292Z" stroke="black" stroke-width="2"/>
<path d="M50.2748 39.5613V39.4287H50.3717V39.5613H50.2748Z" stroke="black" stroke-width="2"/>
<path d="M5.19356 1.1922V1.05957H17.8712V1.1922H5.19356Z" stroke="black" stroke-width="2"/>
<path d="M1 1.1922V1.05957H1.09684V1.1922H1Z" stroke="black" stroke-width="2"/>
</svg>
