<svg width="160" height="160" viewBox="0 0 160 160" fill="none" xmlns="http://www.w3.org/2000/svg">
<circle cx="80" cy="80" r="79" stroke="white" stroke-width="2"/>
<g clip-path="url(#clip0)">
<path d="M59.7752 86.8438C59.7752 83.6211 57.1089 80.9844 53.8501 80.9844C50.5914 80.9844 47.9251 83.6211 47.9251 86.8438C47.9251 90.0664 50.5914 92.7031 53.8501 92.7031C57.1089 92.7031 59.7752 90.0664 59.7752 86.8438ZM61.1072 75.125H98.7314L95.4347 62.0516C95.3233 61.6484 94.5838 61.0625 94.1383 61.0625H65.6979C65.2547 61.0625 64.5129 61.6484 64.4015 62.0516L61.1072 75.125ZM111.916 86.8438C111.916 83.6211 109.25 80.9844 105.991 80.9844C102.732 80.9844 100.066 83.6211 100.066 86.8438C100.066 90.0664 102.732 92.7031 105.991 92.7031C109.25 92.7031 111.916 90.0664 111.916 86.8438ZM117.841 83.3281V97.3906C117.841 98.0492 117.322 98.5625 116.656 98.5625H113.101V103.25C113.101 107.131 109.916 110.281 105.991 110.281C102.066 110.281 98.8807 107.131 98.8807 103.25V98.5625H60.9602V103.25C60.9602 107.131 57.7749 110.281 53.8501 110.281C49.9254 110.281 46.7401 107.131 46.7401 103.25V98.5625H43.185C42.519 98.5625 42 98.0492 42 97.3906V83.3281C42 78.7883 45.7044 75.125 50.2951 75.125H51.3332L55.2224 59.7805C56.3695 55.1656 60.8891 51.6875 65.7027 51.6875H94.143C98.9565 51.6875 103.476 55.1656 104.623 59.7805L108.512 75.125H109.551C114.141 75.125 117.846 78.7883 117.846 83.3281H117.841Z" fill="white"/>
</g>
<defs>
<clipPath id="clip0">
<rect width="75.8409" height="65.625" fill="white" transform="translate(42 47)"/>
</clipPath>
</defs>
</svg>
