<svg width="35" height="35" viewBox="0 0 35 35" fill="none" xmlns="http://www.w3.org/2000/svg">
<circle cx="17.5" cy="17.5" r="16.5" stroke="#333333" stroke-width="2"/>
<path d="M24.7161 19.5021C23.7365 19.5021 22.7747 19.3489 21.8633 19.0477C21.4166 18.8954 20.8676 19.0351 20.595 19.3151L18.796 20.6732C16.7096 19.5595 15.4244 18.2747 14.3259 16.204L15.6441 14.4519C15.9865 14.1099 16.1094 13.6103 15.9622 13.1415C15.6597 12.2253 15.506 11.2639 15.506 10.2839C15.5061 9.57596 14.9301 9 14.2222 9H11.2839C10.576 9 10 9.57596 10 10.2839C10 18.3984 16.6016 25 24.7161 25C25.424 25 26 24.424 26 23.7161V20.786C26 20.0781 25.424 19.5021 24.7161 19.5021Z" fill="#333333"/>
</svg>
