<svg width="22" height="22" viewBox="0 0 22 22" fill="none" xmlns="http://www.w3.org/2000/svg">
<path d="M11.0001 0.0458069C4.92496 0.0458069 0 4.97077 0 11.0459C0 16.4945 3.96574 21.0069 9.16547 21.8807V13.3408H6.51194V10.2676H9.16547V8.00156C9.16547 5.3723 10.7713 3.93951 13.1172 3.93951C14.2407 3.93951 15.2062 4.02323 15.4865 4.0601V6.80838L13.8595 6.80916C12.584 6.80916 12.3381 7.41514 12.3381 8.30468V10.266H15.3815L14.9846 13.3392H12.3381V21.9542C17.7806 21.2918 22 16.6645 22 11.0427C22 4.97077 17.075 0.0458069 11.0001 0.0458069Z" fill="#333333"/>
</svg>
