<svg width="22" height="22" viewBox="0 0 22 22" fill="none" xmlns="http://www.w3.org/2000/svg">
<path d="M15.5632 10.4005C16.1544 9.52325 16.5 8.46815 16.5 7.33335V5.5C16.5 2.46675 14.0333 0 11 0C7.96678 0 5.50003 2.46675 5.50003 5.5V7.33335C5.50003 8.4682 5.84562 9.52325 6.43687 10.4005C3.69053 11.9845 1.83337 14.9417 1.83337 18.3333V19.25C1.83337 20.7662 3.06722 22 4.58337 22H17.4167C18.9329 22 20.1667 20.7662 20.1667 19.25V18.3333C20.1667 14.9417 18.3095 11.9845 15.5632 10.4005ZM7.33337 5.5C7.33337 3.47785 8.97788 1.83335 11 1.83335C13.0222 1.83335 14.6667 3.47785 14.6667 5.5V7.33335C14.6667 9.3555 13.0222 11 11 11C8.97788 11 7.33337 9.3555 7.33337 7.33335V5.5ZM18.3334 19.25C18.3334 19.7551 17.9218 20.1667 17.4167 20.1667H4.58337C4.07828 20.1667 3.66672 19.7551 3.66672 19.25V18.3333C3.66672 15.4559 5.33322 12.9617 7.75137 11.7617C8.66347 12.4318 9.78453 12.8333 11 12.8333C12.2155 12.8333 13.3366 12.4318 14.2487 11.7617C16.6668 12.9617 18.3333 15.4559 18.3333 18.3333V19.25H18.3334Z" fill="#666666"/>
</svg>
