<svg width="33" height="33" viewBox="0 0 33 33" fill="none" xmlns="http://www.w3.org/2000/svg">
<path d="M32.45 3.02515H0.55C0.246262 3.02515 0 3.27141 0 3.57515V23.3751C0 23.6789 0.246262 23.9251 0.55 23.9251H5.5V29.4251C5.5 29.7289 5.74626 29.9751 6.05 29.9751H9.35C9.65374 29.9751 9.9 29.7289 9.9 29.4251V23.9251H32.45C32.7537 23.9251 33 23.6789 33 23.3751V3.57515C33 3.27141 32.7537 3.02515 32.45 3.02515ZM8.8 28.8751H6.6V27.7751H8.8V28.8751ZM8.8 26.6751H6.6V15.6751H8.8V26.6751ZM6.88435 14.5751L7.7 12.6716L8.51565 14.5751H6.88435ZM31.9 22.8251H9.9V15.1251C9.9 15.1174 9.8956 15.1108 9.8956 15.1026C9.89388 15.0393 9.88123 14.9768 9.8582 14.9178V14.9095L8.2082 11.0595C8.08844 10.7804 7.76504 10.6512 7.48591 10.7709C7.35625 10.8266 7.25292 10.9299 7.1973 11.0595L5.5473 14.9095V14.9178C5.52427 14.9768 5.51162 15.0393 5.5099 15.1026C5.5099 15.1108 5.5055 15.1174 5.5055 15.1251V22.8251H1.1V4.12515H31.9V22.8251Z" fill="white"/>
<path d="M24.1665 8.52498C23.8656 6.42006 21.9154 4.95761 19.8105 5.25846C18.1168 5.50053 16.786 6.83126 16.544 8.52498H12.65C12.3462 8.52498 12.1 8.77124 12.1 9.07498V16.775C12.1 17.0787 12.3462 17.325 12.65 17.325H20.35C20.6537 17.325 20.9 17.0787 20.9 16.775V12.881C23.0049 12.5801 24.4673 10.6299 24.1665 8.52498ZM19.8 16.225H13.2V9.62498H16.544C16.7891 11.3113 18.1137 12.6358 19.8 12.881V16.225ZM19.8 11.77C18.7207 11.5475 17.8774 10.7042 17.655 9.62498H19.8V11.77ZM20.9 11.77V9.07498C20.9 8.77124 20.6537 8.52498 20.35 8.52498H17.655C17.9181 7.24547 19.0437 6.32663 20.35 6.32498C21.8687 6.32347 23.1012 7.55341 23.1027 9.07223C23.104 10.3811 22.1826 11.5095 20.9 11.77Z" fill="white"/>
<path d="M26.8565 16.9664C26.6693 16.7272 26.3237 16.6851 26.0844 16.8723C26.0681 16.8851 26.0524 16.8989 26.0375 16.9135V16.9113L21.8982 20.533L18.3667 19.0194C18.2365 18.9634 18.0897 18.9599 17.9569 19.0095L13.5569 20.6595C13.2723 20.7656 13.1276 21.0824 13.2337 21.367C13.3141 21.5825 13.52 21.7253 13.75 21.7248C13.8158 21.7246 13.8812 21.7129 13.943 21.6902L18.1362 20.1172L21.7833 21.6803C21.9779 21.7638 22.2031 21.728 22.3624 21.5884L26.7624 17.7385C27.0016 17.5513 27.0437 17.2056 26.8565 16.9664Z" fill="white"/>
<path d="M10.45 7.9751H2.75001C2.44627 7.9751 2.20001 8.22136 2.20001 8.5251C2.20001 8.82884 2.44627 9.0751 2.75001 9.0751H10.45C10.7537 9.0751 11 8.82884 11 8.5251C11 8.22136 10.7537 7.9751 10.45 7.9751Z" fill="white"/>
<path d="M30.1774 13.75L27.9774 9.90005C27.8034 9.63639 27.4486 9.56372 27.1849 9.73773C27.1204 9.78028 27.0652 9.83556 27.0226 9.90005L24.8226 13.75C24.6707 14.0131 24.7609 14.3495 25.0239 14.5013C25.1079 14.5498 25.2031 14.5753 25.3 14.575H29.7C30.0038 14.5757 30.2505 14.3299 30.2511 14.0261C30.2513 13.9292 30.2259 13.834 30.1774 13.75ZM26.2477 13.475L27.5 11.2838L28.7524 13.475H26.2477Z" fill="white"/>
</svg>
