<svg width="12" height="40" viewBox="0 0 12 40" fill="none" xmlns="http://www.w3.org/2000/svg">
<path d="M0 0V39.3333H11.8V0H0ZM10.4889 7.86667H5.9V9.17778H10.4889V10.4889H8.52222V11.8H10.4889V13.1111H5.9V14.4222H10.4889V15.7333H8.52222V17.0444H10.4889V18.3556H5.9V19.6667H10.4889V20.9778H8.52222V22.2889H10.4889V23.6H5.9V24.9111H10.4889V26.2222H8.52222V27.5333H10.4889V28.8444H5.9V30.1556H10.4889V31.4667H8.52222V32.7778H10.4889V34.0889H5.9V35.4H10.4889V38.0222H1.31111V1.31111H10.4889V7.86667Z" fill="black"/>
<path d="M5.90026 5.90001C6.98643 5.90001 7.86693 5.01952 7.86693 3.93334C7.86693 2.84717 6.98643 1.96667 5.90026 1.96667C4.81409 1.96667 3.93359 2.84717 3.93359 3.93334C3.93359 5.01952 4.81409 5.90001 5.90026 5.90001ZM5.90026 3.27779C6.26229 3.27779 6.55582 3.57131 6.55582 3.93334C6.55582 4.29537 6.26229 4.5889 5.90026 4.5889C5.53823 4.5889 5.2447 4.29537 5.2447 3.93334C5.2447 3.57131 5.53823 3.27779 5.90026 3.27779Z" fill="black"/>
</svg>
