<svg width="19" height="19" viewBox="0 0 19 19" fill="none" xmlns="http://www.w3.org/2000/svg">
<path d="M18.8357 18.031L14.2173 13.4137C15.4562 11.9898 16.2063 10.1319 16.2063 8.10133C16.2063 3.63149 12.5697 0 8.10313 0C3.63229 0 0 3.6357 0 8.10133C0 12.567 3.63651 16.2027 8.10313 16.2027C10.1342 16.2027 11.9925 15.4528 13.4167 14.2142L18.035 18.8315C18.1446 18.941 18.2921 19 18.4354 19C18.5786 19 18.7261 18.9452 18.8357 18.8315C19.0548 18.6124 19.0548 18.2501 18.8357 18.031ZM1.13351 8.10133C1.13351 4.2592 4.26015 1.13747 8.09891 1.13747C11.9419 1.13747 15.0643 4.26342 15.0643 8.10133C15.0643 11.9392 11.9419 15.0694 8.09891 15.0694C4.26015 15.0694 1.13351 11.9435 1.13351 8.10133Z" fill="white"/>
</svg>
