<svg width="27" height="33" viewBox="0 0 27 33" fill="none" xmlns="http://www.w3.org/2000/svg">
<path d="M1.33068 31.4431C-0.125091 29.9998 -0.41992 27.7601 0.612373 25.9973C1.45371 24.5607 3.97871 20.2516 3.97871 20.2516C4.23994 19.8182 4.83882 19.8266 5.1092 20.2516C5.1092 20.2516 7.6342 24.5607 8.47554 25.9973C9.50783 27.7601 9.21294 29.9999 7.75749 31.4429C5.97976 33.2054 3.11626 33.2134 1.33068 31.4431V31.4431ZM4.54399 21.8673C3.74919 23.2238 2.33271 25.6414 1.74312 26.6481C1.00807 27.9033 1.2187 29.4982 2.25524 30.5265C3.51712 31.777 5.57092 31.777 6.83293 30.5263C7.86928 29.4982 8.07984 27.9033 7.3448 26.6481C6.75527 25.6414 5.33878 23.2238 4.54399 21.8673V21.8673ZM3.20451 8.1328C1.90681 8.1328 0.851112 7.08612 0.851112 5.7995C0.851112 4.51288 1.90681 3.46619 3.20451 3.46619C4.50222 3.46619 5.55791 4.51288 5.55791 5.7995C5.55791 7.08612 4.50222 8.1328 3.20451 8.1328V8.1328ZM3.20451 4.76247C2.6278 4.76247 2.15856 5.22771 2.15856 5.7995C2.15856 6.37129 2.6278 6.83652 3.20451 6.83652C3.78123 6.83652 4.25047 6.37129 4.25047 5.7995C4.25047 5.22771 3.78129 4.76247 3.20451 4.76247ZM24.9735 30.2992C23.856 30.2992 22.9469 29.3978 22.9469 28.2899C22.9469 27.1821 23.856 26.2807 24.9735 26.2807C26.0909 26.2807 27 27.1821 27 28.2899C27 29.3978 26.0909 30.2992 24.9735 30.2992ZM24.9735 27.577C24.577 27.577 24.2544 27.8968 24.2544 28.2899C24.2544 28.683 24.577 29.0029 24.9735 29.0029C25.3699 29.0029 25.6926 28.683 25.6926 28.2899C25.6926 27.8968 25.37 27.577 24.9735 27.577ZM26.1719 4.18492C25.5688 3.15496 23.9187 0.353634 23.9187 0.353634C23.6576 -0.0650641 23.0671 -0.115295 22.7882 0.353634C22.7882 0.353634 21.1381 3.15502 20.5349 4.18492C19.7949 5.44859 20.0063 7.05429 21.0499 8.08898C22.3299 9.35811 24.3828 9.35234 25.6572 8.08879C26.7006 7.05429 26.912 5.44859 26.1719 4.18492ZM24.7292 7.17407C23.9706 7.92585 22.7362 7.92585 21.9777 7.1742C21.3546 6.55607 21.2281 5.59747 21.6699 4.84304C22.0243 4.23793 22.8757 2.78481 23.3534 1.96945C23.8311 2.78481 24.6826 4.23793 25.0369 4.84304C25.4787 5.59747 25.3522 6.55613 24.7292 7.17407ZM20.7286 23.1689C17.8188 26.0539 13.3447 26.4108 10.0503 24.2096C9.32655 23.7283 10.0503 22.6585 10.774 23.1398L10.7751 23.1365C13.5521 24.9809 17.3566 24.6884 19.8083 22.2587C22.0969 19.9882 22.562 16.4661 20.9387 13.6942C19.6367 11.471 16.5085 6.13193 14.7532 3.13629C12.998 6.13193 9.8698 11.471 8.56778 13.6942C7.63341 15.2897 7.39095 17.1338 7.79005 18.8449L7.78586 18.844C7.98041 19.683 6.71618 19.9711 6.52163 19.1321C6.05056 17.1095 6.33787 14.9293 7.44253 13.043C9.00701 10.3716 14.1877 1.52048 14.1877 1.52048C14.4401 1.09316 15.0379 1.09005 15.318 1.52048C15.318 1.52048 20.4994 10.3716 22.0639 13.043C23.9834 16.3207 23.4351 20.4856 20.7286 23.1689V23.1689ZM8.32839 20.9938C7.96733 20.9938 7.67466 21.284 7.67466 21.642C7.67466 21.9999 7.96733 22.2901 8.32839 22.2901C8.68944 22.2901 8.98211 21.9999 8.98211 21.642C8.98211 21.284 8.68944 20.9938 8.32839 20.9938Z" fill="white"/>
</svg>
