<svg width="16" height="16" viewBox="0 0 16 16" fill="none" xmlns="http://www.w3.org/2000/svg">
<path d="M15.8632 7.64374L11.0635 2.31069C10.9611 2.19763 10.8182 2.13364 10.6667 2.13364H7.46689C7.25677 2.13364 7.06584 2.25736 6.97945 2.44935C6.89412 2.64241 6.92932 2.86746 7.07011 3.02319L11.5488 7.99999L7.07011 12.9757C6.92932 13.1325 6.89305 13.3576 6.97945 13.5496C7.06584 13.7426 7.25677 13.8663 7.46689 13.8663H10.6667C10.8182 13.8663 10.9611 13.8013 11.0635 13.6903L15.8632 8.3573C16.0456 8.15464 16.0456 7.84533 15.8632 7.64374Z" fill="#ED4F4F"/>
<path d="M8.93025 7.64374L4.13051 2.31069C4.02811 2.19763 3.88519 2.13364 3.73373 2.13364H0.533904C0.323782 2.13364 0.132859 2.25736 0.0464639 2.44935C-0.0388648 2.64241 -0.00366671 2.86746 0.137126 3.02319L4.61582 7.99999L0.137126 12.9757C-0.00366671 13.1325 -0.0399314 13.3576 0.0464639 13.5496C0.132859 13.7426 0.323782 13.8663 0.533904 13.8663H3.73373C3.88519 13.8663 4.02811 13.8013 4.13051 13.6903L8.93025 8.3573C9.11264 8.15464 9.11264 7.84533 8.93025 7.64374Z" fill="#ED4F4F"/>
</svg>
