<svg width="35" height="35" viewBox="0 0 35 35" fill="none" xmlns="http://www.w3.org/2000/svg">
<path d="M17.5 8C13.916 8 11 10.916 11 14.5C11 15.5759 11.269 16.6427 11.7804 17.5889L17.1445 27.2905C17.216 27.4198 17.352 27.5 17.5 27.5C17.648 27.5 17.784 27.4198 17.8555 27.2905L23.2216 17.5857C23.731 16.6427 24 15.5759 24 14.5C24 10.916 21.084 8 17.5 8ZM17.5 17.75C15.708 17.75 14.25 16.292 14.25 14.5C14.25 12.708 15.708 11.25 17.5 11.25C19.292 11.25 20.75 12.708 20.75 14.5C20.75 16.292 19.292 17.75 17.5 17.75Z" fill="#333333"/>
<circle cx="17.5" cy="17.5" r="16.5" stroke="#333333" stroke-width="2"/>
</svg>
