<svg width="35" height="35" viewBox="0 0 35 35" fill="none" xmlns="http://www.w3.org/2000/svg">
<circle cx="17.5" cy="17.5" r="16.5" stroke="#333333" stroke-width="2"/>
<g clip-path="url(#clip0)">
<path d="M24.5937 10.9062H11.4062C11.1897 10.9062 10.9871 10.9595 10.8037 11.0472L17.9687 18.2122L19.5746 16.6688C19.5746 16.6688 19.5747 16.6687 19.5747 16.6686C19.5748 16.6685 19.5749 16.6685 19.5749 16.6685L25.1964 11.0473C25.013 10.9595 24.8102 10.9062 24.5937 10.9062Z" fill="#333333"/>
<path d="M25.8594 11.7103L20.5693 17.0001L25.8592 22.29C25.947 22.1066 26.0002 21.904 26.0002 21.6875V12.3125C26.0002 12.0962 25.9471 11.8935 25.8594 11.7103Z" fill="#333333"/>
<path d="M10.1409 11.71C10.0532 11.8934 10 12.096 10 12.3125V21.6875C10 21.9038 10.0532 22.1065 10.1408 22.2898L15.4309 17L10.1409 11.71Z" fill="#333333"/>
<path d="M19.9065 17.6629L18.3003 19.2064C18.2088 19.298 18.0888 19.3438 17.9689 19.3438C17.849 19.3438 17.7291 19.298 17.6375 19.2064L16.0939 17.6628L10.8037 22.9527C10.9871 23.0405 11.1899 23.0937 11.4064 23.0937H24.5939C24.8104 23.0937 25.013 23.0405 25.1964 22.9528L19.9065 17.6629Z" fill="#333333"/>
</g>
<defs>
<clipPath id="clip0">
<rect width="16" height="16" fill="white" transform="translate(10 9)"/>
</clipPath>
</defs>
</svg>
