<svg width="160" height="160" viewBox="0 0 160 160" fill="none" xmlns="http://www.w3.org/2000/svg">
<circle cx="80" cy="80" r="79" stroke="white" stroke-width="2"/>
<path d="M106.172 84.7113V106.346C106.172 107.924 104.851 109.231 103.255 109.231H85.7535V91.9229H74.0857V109.231H56.5839C54.9884 109.231 53.667 107.924 53.667 106.346V84.7113C53.667 84.6219 53.7136 84.5296 53.7136 84.4402L79.9196 63.0767L106.126 84.4402C106.172 84.5296 106.172 84.6219 106.172 84.7113ZM116.335 81.6017L113.508 84.9363C113.281 85.2075 112.916 85.3863 112.552 85.4325H112.415C112.05 85.4325 111.732 85.3431 111.458 85.1181L79.9167 59.1104L48.3756 85.1181C48.0577 85.3431 47.693 85.4786 47.2817 85.4325C46.9171 85.3863 46.5525 85.2075 46.325 84.9363L43.4985 81.6017C42.9967 81.0161 43.0872 80.07 43.6822 79.5738L76.4513 52.5767C78.3649 50.9988 81.4656 50.9988 83.3791 52.5767L94.5015 61.77V52.9806C94.5015 52.17 95.1403 51.5383 95.96 51.5383H104.711C105.531 51.5383 106.169 52.17 106.169 52.9806V71.37L116.151 79.5738C116.743 80.07 116.834 81.0161 116.335 81.6017Z" fill="white"/>
</svg>
