<svg width="160" height="160" viewBox="0 0 160 160" fill="none" xmlns="http://www.w3.org/2000/svg">
<circle cx="80" cy="80" r="79" stroke="white" stroke-width="2"/>
<path d="M108.938 61.8827C108.109 61.8827 107.308 61.9864 106.53 62.1546C106.185 57.0497 101.969 53.0044 96.7665 53.0044C95.6008 53.0044 94.4969 53.2427 93.4604 53.6155C90.2301 48.491 84.5505 45.0625 78.0394 45.0625C68.1463 45.0625 60.1381 52.9315 59.8376 62.7321C58.5202 62.191 57.082 61.8827 55.568 61.8827C49.3631 61.8827 44.3323 66.9035 44.3323 73.0961C44.3323 79.1289 49.1159 84.0124 55.0989 84.2591L59.6044 79.7625L64.1605 84.3095H66.2897L70.8429 79.7625L75.3962 84.3095H77.5253L82.0786 79.7625L86.6319 84.3095H88.761L93.3143 79.7625L97.8676 84.3095H99.9967L104.55 79.7625L109.089 84.2927C115.221 84.2114 120.173 79.2382 120.173 73.0961C120.173 66.9035 115.142 61.8827 108.938 61.8827ZM104.724 83.0929L100.696 87.1129H97.1625L93.3115 83.2695L89.4605 87.1129H85.9268L82.0758 83.2695L78.2248 87.1129H74.6911L70.8401 83.2695L66.9891 87.1129H63.4583L59.6072 83.2695L55.7534 87.1129H55.568L63.0116 117.95H101.283L108.938 87.1129H108.752L104.724 83.0929ZM69.6126 115.146L63.7616 89.9162H66.5705L72.4215 115.146H69.6126ZM75.2305 115.146L72.2474 89.9162H75.0563L78.0394 115.146H75.2305ZM83.6572 115.146H80.8483V89.9162H83.6572V115.146ZM86.4661 115.146L89.4492 89.9162H92.2581L89.2751 115.146H86.4661ZM94.8929 115.146H92.084L97.876 89.9162H100.685L94.8929 115.146Z" fill="white"/>
</svg>
