<svg width="41" height="40" viewBox="0 0 41 40" fill="none" xmlns="http://www.w3.org/2000/svg">
<rect x="1" y="1" width="39" height="38" stroke="#BEC2C7" stroke-width="2"/>
<path d="M22.095 30.168C20.271 30.168 18.687 29.76 17.343 28.944C16.015 28.128 14.999 27.04 14.295 25.68C13.591 24.304 13.239 22.792 13.239 21.144C13.239 19.4 13.615 17.84 14.367 16.464C15.135 15.088 16.207 14.016 17.583 13.248C18.959 12.464 20.519 12.072 22.263 12.072C23.047 12.072 23.775 12.16 24.447 12.336C25.135 12.496 25.703 12.688 26.151 12.912C26.599 13.12 26.895 13.296 27.039 13.44L25.863 15.84C24.887 14.976 23.615 14.544 22.047 14.544C20.943 14.544 19.943 14.816 19.047 15.36C18.151 15.904 17.447 16.68 16.935 17.688C16.423 18.696 16.167 19.864 16.167 21.192C16.167 22.408 16.391 23.512 16.839 24.504C17.303 25.496 17.975 26.28 18.855 26.856C19.735 27.432 20.783 27.72 21.999 27.72C23.407 27.72 24.767 27.32 26.079 26.52L26.871 28.8C26.519 29.12 25.871 29.432 24.927 29.736C23.999 30.024 23.055 30.168 22.095 30.168Z" fill="black"/>
</svg>
