<svg width="41" height="40" viewBox="0 0 41 40" fill="none" xmlns="http://www.w3.org/2000/svg">
<rect x="1" y="1" width="39" height="38" stroke="#BEC2C7" stroke-width="2"/>
<path d="M14.1103 12.36H18.3583C21.9103 12.36 24.3903 13.2 25.7983 14.88C27.2223 16.56 27.9343 18.56 27.9343 20.88C27.9343 22.496 27.6303 23.992 27.0223 25.368C26.4143 26.728 25.4063 27.84 23.9983 28.704C22.6063 29.568 20.7743 30 18.5023 30H14.1103V12.36ZM18.7903 27.624C20.9983 27.624 22.5983 27 23.5903 25.752C24.5983 24.488 25.1023 22.904 25.1023 21C25.1023 19.144 24.5983 17.632 23.5903 16.464C22.5823 15.296 20.9823 14.712 18.7903 14.712H16.7983V27.624H18.7903Z" fill="black"/>
</svg>
