<svg width="41" height="40" viewBox="0 0 41 40" fill="none" xmlns="http://www.w3.org/2000/svg">
<rect x="1" y="1" width="39" height="38" stroke="#BEC2C7" stroke-width="2"/>
<path d="M14.3603 12.36H18.8483C21.3763 12.36 23.0563 12.784 23.8883 13.632C24.7203 14.48 25.1363 15.504 25.1363 16.704C25.1363 17.504 24.9603 18.264 24.6083 18.984C24.2563 19.688 23.6963 20.216 22.9283 20.568C24.0643 20.856 24.8963 21.36 25.4243 22.08C25.9683 22.8 26.2403 23.648 26.2403 24.624C26.2403 25.648 26.0803 26.544 25.7603 27.312C25.4403 28.08 24.7763 28.72 23.7683 29.232C22.7603 29.744 21.3043 30 19.4003 30H14.3603V12.36ZM19.2803 19.848C20.4163 19.848 21.2243 19.576 21.7043 19.032C22.1843 18.472 22.4243 17.768 22.4243 16.92C22.4243 15.4 21.3363 14.64 19.1603 14.64H17.0003V19.848H19.2803ZM19.7603 27.744C21.2163 27.744 22.1923 27.456 22.6883 26.88C23.2003 26.288 23.4563 25.544 23.4563 24.648C23.4563 23.8 23.1683 23.144 22.5923 22.68C22.0163 22.216 21.1443 21.984 19.9763 21.984H17.0003V27.744H19.7603Z" fill="black"/>
</svg>
