<svg width="35" height="35" viewBox="0 0 35 35" fill="none" xmlns="http://www.w3.org/2000/svg">
<path d="M10.2084 5.83366C10.2084 4.22283 11.5143 2.91699 13.1251 2.91699H21.8751C23.4859 2.91699 24.7917 4.22283 24.7917 5.83366V8.75033H27.6934C27.7024 8.75024 27.7114 8.75024 27.7205 8.75033H30.6251C31.4305 8.75033 32.0834 9.40324 32.0834 10.2087C32.0834 11.0141 31.4305 11.667 30.6251 11.667H29.0663L27.8015 29.3748C27.6924 30.9011 26.4224 32.0837 24.8922 32.0837H10.108C8.57777 32.0837 7.30773 30.9011 7.19871 29.3748L5.93387 11.667H4.37508C3.56967 11.667 2.91675 11.0141 2.91675 10.2087C2.91675 9.40324 3.56967 8.75033 4.37508 8.75033H7.27971C7.28876 8.75024 7.29779 8.75024 7.3068 8.75033H10.2084V5.83366ZM13.1251 8.75033H21.8751V5.83366H13.1251V8.75033ZM8.85796 11.667L10.108 29.167H24.8922L26.1422 11.667H8.85796Z" fill="#0D0D0D"/>
</svg>
