<svg width="60" height="38" viewBox="0 0 60 38" fill="none" xmlns="http://www.w3.org/2000/svg">
<path fill-rule="evenodd" clip-rule="evenodd" d="M29.9999 32.8854C26.8224 35.6274 22.7006 37.2827 18.1967 37.2827C8.14695 37.2827 0 29.0412 0 18.8748C0 8.70832 8.14695 0.466797 18.1967 0.466797C22.7006 0.466797 26.8224 2.12209 29.9999 4.86411C33.1774 2.12209 37.2991 0.466797 41.8031 0.466797C51.8528 0.466797 59.9998 8.70832 59.9998 18.8748C59.9998 29.0412 51.8528 37.2827 41.8031 37.2827C37.2991 37.2827 33.1774 35.6274 29.9999 32.8854Z" fill="#ED0006"/>
<path fill-rule="evenodd" clip-rule="evenodd" d="M29.9998 32.8854C33.9124 29.5091 36.3933 24.485 36.3933 18.8748C36.3933 13.2645 33.9124 8.24047 29.9998 4.86411C33.1773 2.12209 37.299 0.466797 41.8029 0.466797C51.8527 0.466797 59.9997 8.70832 59.9997 18.8748C59.9997 29.0412 51.8527 37.2827 41.8029 37.2827C37.299 37.2827 33.1773 35.6274 29.9998 32.8854Z" fill="#F9A000"/>
<path fill-rule="evenodd" clip-rule="evenodd" d="M30.0005 32.8851C33.9129 29.5088 36.3938 24.4848 36.3938 18.8747C36.3938 13.2646 33.9129 8.24062 30.0005 4.86426C26.088 8.24062 23.6072 13.2646 23.6072 18.8747C23.6072 24.4848 26.088 29.5088 30.0005 32.8851Z" fill="#FF5E00"/>
</svg>
