<svg width="144" height="294" viewBox="0 0 144 294" fill="none" xmlns="http://www.w3.org/2000/svg">
<path d="M15 0L27.9904 22.5H2.00962L15 0Z" fill="#BEC2C7"/>
<path d="M53 0L65.9904 22.5H40.0096L53 0Z" fill="#BEC2C7"/>
<path d="M91 0L103.99 22.5H78.0096L91 0Z" fill="#BEC2C7"/>
<path d="M129 0L141.99 22.5H116.01L129 0Z" fill="#BEC2C7"/>
<path d="M15 44L27.9904 66.5H2.00962L15 44Z" fill="#BEC2C7"/>
<path d="M53 44L65.9904 66.5H40.0096L53 44Z" fill="#BEC2C7"/>
<path d="M91 44L103.99 66.5H78.0096L91 44Z" fill="#BEC2C7"/>
<path d="M129 44L141.99 66.5H116.01L129 44Z" fill="#BEC2C7"/>
<path d="M15 88L27.9904 110.5H2.00962L15 88Z" fill="#BEC2C7"/>
<path d="M53 88L65.9904 110.5H40.0096L53 88Z" fill="#BEC2C7"/>
<path d="M91 88L103.99 110.5H78.0096L91 88Z" fill="#BEC2C7"/>
<path d="M129 88L141.99 110.5H116.01L129 88Z" fill="#BEC2C7"/>
<path d="M15 132L27.9904 154.5H2.00962L15 132Z" fill="#BEC2C7"/>
<path d="M53 132L65.9904 154.5H40.0096L53 132Z" fill="#BEC2C7"/>
<path d="M91 132L103.99 154.5H78.0096L91 132Z" fill="#BEC2C7"/>
<path d="M129 132L141.99 154.5H116.01L129 132Z" fill="#BEC2C7"/>
<path d="M15 176L27.9904 198.5H2.00962L15 176Z" fill="#BEC2C7"/>
<path d="M53 176L65.9904 198.5H40.0096L53 176Z" fill="#BEC2C7"/>
<path d="M91 176L103.99 198.5H78.0096L91 176Z" fill="#BEC2C7"/>
<path d="M129 176L141.99 198.5H116.01L129 176Z" fill="#BEC2C7"/>
<path d="M15 220L27.9904 242.5H2.00962L15 220Z" fill="#BEC2C7"/>
<path d="M53 220L65.9904 242.5H40.0096L53 220Z" fill="#BEC2C7"/>
<path d="M91 220L103.99 242.5H78.0096L91 220Z" fill="#BEC2C7"/>
<path d="M129 220L141.99 242.5H116.01L129 220Z" fill="#BEC2C7"/>
<path d="M15 264L27.9904 286.5H2.00962L15 264Z" fill="#BEC2C7"/>
<path d="M53 264L65.9904 286.5H40.0096L53 264Z" fill="#BEC2C7"/>
<path d="M91 264L103.99 286.5H78.0096L91 264Z" fill="#BEC2C7"/>
<path d="M129 264L141.99 286.5H116.01L129 264Z" fill="#BEC2C7"/>
</svg>
