<svg width="135" height="118" viewBox="0 0 135 118" fill="none" xmlns="http://www.w3.org/2000/svg">
<g filter="url(#filter0_d)">
<rect x="42.281" y="41.7897" width="51.3124" height="34.3541" rx="14.5524" fill="white" stroke="#D9D9D9" stroke-width="2.64589"/>
<path fill-rule="evenodd" clip-rule="evenodd" d="M64.1509 68.9079L64.5012 66.6738L63.7208 66.6555H59.9946L62.5842 50.1695C62.5923 50.1196 62.6184 50.0733 62.6564 50.0403C62.6947 50.0073 62.7435 49.9893 62.7945 49.9893H69.0775C71.1635 49.9893 72.6029 50.425 73.3543 51.2851C73.7067 51.6887 73.9311 52.1105 74.0397 52.5744C74.1536 53.0614 74.1555 53.6431 74.0444 54.3528L74.0364 54.4044V54.8592L74.3887 55.0596C74.6853 55.2177 74.9212 55.3985 75.1021 55.6055C75.4034 55.9507 75.5983 56.3892 75.6807 56.909C75.7659 57.4436 75.7377 58.08 75.5983 58.8003C75.4375 59.6288 75.1777 60.3505 74.8266 60.9409C74.5039 61.485 74.0926 61.9363 73.6043 62.286C73.138 62.6183 72.5841 62.8705 71.9579 63.032C71.3509 63.1906 70.6589 63.2707 69.9 63.2707H69.4111C69.0615 63.2707 68.7219 63.3971 68.4553 63.6237C68.1879 63.855 68.0112 64.1711 67.957 64.5168L67.92 64.718L67.3011 68.6558L67.2731 68.8003C67.2656 68.8461 67.2528 68.8689 67.2341 68.8843C67.2174 68.8984 67.1934 68.9079 67.1699 68.9079H64.1509Z" fill="#28356A"/>
<path fill-rule="evenodd" clip-rule="evenodd" d="M74.7227 54.457C74.7041 54.5774 74.6826 54.7004 74.6585 54.8268C73.83 59.0982 70.9952 60.5738 67.3748 60.5738H65.5314C65.0886 60.5738 64.7155 60.8965 64.6466 61.3351L63.4355 69.0485C63.3906 69.3365 63.6117 69.5959 63.901 69.5959H67.1705C67.5576 69.5959 67.8865 69.3135 67.9474 68.9302L67.9795 68.7634L68.5951 64.8411L68.6347 64.626C68.6949 64.2413 69.0246 63.9587 69.4117 63.9587H69.9006C73.0683 63.9587 75.5481 62.6675 76.2729 58.9308C76.5755 57.3698 76.4188 56.0664 75.6177 55.1497C75.3753 54.8734 75.0745 54.6439 74.7227 54.457Z" fill="#298FC2"/>
<path fill-rule="evenodd" clip-rule="evenodd" d="M73.8555 54.1101C73.7288 54.073 73.5983 54.0395 73.4643 54.0091C73.3296 53.9796 73.1917 53.9534 73.0496 53.9304C72.5526 53.8498 72.008 53.8115 71.4246 53.8115H66.5001C66.3787 53.8115 66.2635 53.839 66.1605 53.8888C65.9333 53.9984 65.7646 54.2143 65.7237 54.4786L64.676 61.141L64.646 61.3352C64.7149 60.8966 65.088 60.5739 65.5308 60.5739H67.3742C70.9946 60.5739 73.8294 59.0976 74.658 54.8269C74.6827 54.7005 74.7035 54.5775 74.7221 54.4571C74.5125 54.3454 74.2855 54.2499 74.041 54.1685C73.9806 54.1484 73.9183 54.1289 73.8555 54.1101Z" fill="#22284F"/>
<path fill-rule="evenodd" clip-rule="evenodd" d="M65.7239 54.4787C65.7648 54.2144 65.9335 53.9985 66.1607 53.8896C66.2645 53.8397 66.3789 53.8122 66.5003 53.8122H71.4248C72.0082 53.8122 72.5528 53.8506 73.0499 53.9312C73.1919 53.954 73.3298 53.9804 73.4645 54.01C73.5985 54.0401 73.729 54.0739 73.8557 54.1108C73.9185 54.1296 73.9808 54.1492 74.0418 54.1686C74.2863 54.25 74.5135 54.3463 74.7231 54.4572C74.9696 52.8787 74.721 51.804 73.8711 50.8308C72.9339 49.7593 71.2427 49.3008 69.0784 49.3008H62.7953C62.3533 49.3008 61.9761 49.6235 61.9078 50.0628L59.2909 66.7183C59.2393 67.0478 59.4924 67.3451 59.8234 67.3451H63.7023L65.7239 54.4787Z" fill="#28356A"/>
</g>
<defs>
<filter id="filter0_d" x="0.958008" y="0.466797" width="133.958" height="117" filterUnits="userSpaceOnUse" color-interpolation-filters="sRGB">
<feFlood flood-opacity="0" result="BackgroundImageFix"/>
<feColorMatrix in="SourceAlpha" type="matrix" values="0 0 0 0 0 0 0 0 0 0 0 0 0 0 0 0 0 0 127 0" result="hardAlpha"/>
<feOffset/>
<feGaussianBlur stdDeviation="20"/>
<feColorMatrix type="matrix" values="0 0 0 0 0 0 0 0 0 0 0 0 0 0 0 0 0 0 0.08 0"/>
<feBlend mode="normal" in2="BackgroundImageFix" result="effect1_dropShadow"/>
<feBlend mode="normal" in="SourceGraphic" in2="effect1_dropShadow" result="shape"/>
</filter>
</defs>
</svg>
