<svg width="41" height="40" viewBox="0 0 41 40" fill="none" xmlns="http://www.w3.org/2000/svg">
<rect x="1" y="1" width="39" height="38" stroke="#BEC2C7" stroke-width="2"/>
<path d="M20.1233 30.24C19.1633 30.24 18.2113 30.072 17.2673 29.736C16.3233 29.4 15.6433 29.024 15.2273 28.608L16.4993 26.328C16.8353 26.632 17.3553 26.952 18.0593 27.288C18.7793 27.608 19.4673 27.768 20.1233 27.768C20.9713 27.768 21.6593 27.568 22.1873 27.168C22.7313 26.768 23.0033 26.216 23.0033 25.512C23.0033 24.968 22.8593 24.496 22.5713 24.096C22.2833 23.696 21.9313 23.368 21.5153 23.112C21.0993 22.84 20.5073 22.512 19.7393 22.128C18.8273 21.68 18.2033 21.344 17.8673 21.12C16.3153 20.08 15.5393 18.64 15.5393 16.8C15.5393 15.28 16.0433 14.12 17.0513 13.32C18.0593 12.504 19.3313 12.096 20.8673 12.096C22.5153 12.096 23.9153 12.568 25.0673 13.512L23.7953 15.696C23.4913 15.376 23.0593 15.104 22.4993 14.88C21.9553 14.64 21.3713 14.52 20.7473 14.52C19.9473 14.52 19.3153 14.704 18.8513 15.072C18.4033 15.424 18.1793 15.952 18.1793 16.656C18.1793 17.152 18.3233 17.6 18.6113 18C18.8993 18.384 19.2593 18.72 19.6913 19.008C20.1393 19.296 20.7393 19.648 21.4913 20.064C22.2113 20.464 22.7633 20.784 23.1473 21.024C23.5313 21.248 23.8913 21.52 24.2273 21.84C24.6913 22.256 25.0673 22.752 25.3553 23.328C25.6433 23.904 25.7873 24.536 25.7873 25.224C25.7873 26.296 25.5393 27.208 25.0433 27.96C24.5633 28.712 23.8913 29.28 23.0273 29.664C22.1793 30.048 21.2113 30.24 20.1233 30.24Z" fill="black"/>
</svg>
