<svg width="30" height="30" viewBox="0 0 30 30" fill="none" xmlns="http://www.w3.org/2000/svg">
<path d="M12.0833 3.33335C7.25083 3.33335 3.33332 7.25086 3.33332 12.0834C3.33332 16.9158 7.25083 20.8334 12.0833 20.8334C16.9158 20.8334 20.8333 16.9158 20.8333 12.0834C20.8333 7.25086 16.9158 3.33335 12.0833 3.33335ZM0.416656 12.0834C0.416656 5.64003 5.64 0.416687 12.0833 0.416687C18.5266 0.416687 23.75 5.64003 23.75 12.0834C23.75 14.7794 22.8355 17.2618 21.2998 19.2374L29.1562 27.0938C29.7257 27.6633 29.7257 28.5867 29.1562 29.1562C28.5867 29.7257 27.6633 29.7257 27.0938 29.1562L19.2374 21.2998C17.2618 22.8355 14.7794 23.75 12.0833 23.75C5.64 23.75 0.416656 18.5267 0.416656 12.0834Z" fill="#EF5DA8"/>
</svg>
