<svg width="36" height="36" viewBox="0 0 36 36" fill="none" xmlns="http://www.w3.org/2000/svg">
<path d="M18 6.33335C14.7783 6.33335 12.1667 8.94503 12.1667 12.1667C12.1667 15.3883 14.7783 18 18 18C21.2217 18 23.8333 15.3883 23.8333 12.1667C23.8333 8.94503 21.2217 6.33335 18 6.33335ZM9.25 12.1667C9.25 7.3342 13.1675 3.41669 18 3.41669C22.8325 3.41669 26.75 7.3342 26.75 12.1667C26.75 16.9992 22.8325 20.9167 18 20.9167C13.1675 20.9167 9.25 16.9992 9.25 12.1667ZM12.1667 26.75C9.75042 26.75 7.79167 28.7088 7.79167 31.125C7.79167 31.9304 7.13875 32.5834 6.33333 32.5834C5.52792 32.5834 4.875 31.9304 4.875 31.125C4.875 27.0979 8.13959 23.8334 12.1667 23.8334H23.8333C27.8604 23.8334 31.125 27.0979 31.125 31.125C31.125 31.9304 30.4721 32.5834 29.6667 32.5834C28.8613 32.5834 28.2083 31.9304 28.2083 31.125C28.2083 28.7088 26.2496 26.75 23.8333 26.75H12.1667Z" fill="#EF5DA8"/>
</svg>
