<svg width="41" height="40" viewBox="0 0 41 40" fill="none" xmlns="http://www.w3.org/2000/svg">
<rect x="1" y="1" width="39" height="38" stroke="#BEC2C7" stroke-width="2"/>
<path d="M12.1048 20.808L7.01684 12.36H10.2568L13.5928 18.528L17.0248 12.36H20.1928L15.0808 20.76L20.6968 30H17.5048L13.6168 23.016L9.80084 30H6.70484L12.1048 20.808ZM26.8538 30.24C25.8938 30.24 24.9418 30.072 23.9978 29.736C23.0538 29.4 22.3738 29.024 21.9578 28.608L23.2298 26.328C23.5658 26.632 24.0858 26.952 24.7898 27.288C25.5098 27.608 26.1978 27.768 26.8538 27.768C27.7018 27.768 28.3898 27.568 28.9178 27.168C29.4618 26.768 29.7338 26.216 29.7338 25.512C29.7338 24.968 29.5898 24.496 29.3018 24.096C29.0138 23.696 28.6618 23.368 28.2458 23.112C27.8298 22.84 27.2378 22.512 26.4698 22.128C25.5578 21.68 24.9338 21.344 24.5978 21.12C23.0458 20.08 22.2698 18.64 22.2698 16.8C22.2698 15.28 22.7738 14.12 23.7818 13.32C24.7898 12.504 26.0618 12.096 27.5978 12.096C29.2458 12.096 30.6458 12.568 31.7978 13.512L30.5258 15.696C30.2218 15.376 29.7898 15.104 29.2298 14.88C28.6858 14.64 28.1018 14.52 27.4778 14.52C26.6778 14.52 26.0458 14.704 25.5818 15.072C25.1338 15.424 24.9098 15.952 24.9098 16.656C24.9098 17.152 25.0538 17.6 25.3418 18C25.6298 18.384 25.9898 18.72 26.4218 19.008C26.8698 19.296 27.4698 19.648 28.2218 20.064C28.9418 20.464 29.4938 20.784 29.8778 21.024C30.2618 21.248 30.6218 21.52 30.9578 21.84C31.4218 22.256 31.7978 22.752 32.0858 23.328C32.3738 23.904 32.5178 24.536 32.5178 25.224C32.5178 26.296 32.2698 27.208 31.7738 27.96C31.2938 28.712 30.6218 29.28 29.7578 29.664C28.9098 30.048 27.9418 30.24 26.8538 30.24Z" fill="black"/>
</svg>
