<svg xmlns="http://www.w3.org/2000/svg" xmlns:xlink="http://www.w3.org/1999/xlink" preserveAspectRatio="xMidYMid" width="43" height="60.031" viewBox="0 0 43 60.031">
  <defs>
    <style>
      .cls-1 {
        fill: #edb841;
        fill-rule: evenodd;
      }
    </style>
  </defs>
  <path d="M32.479,-0.010 L32.479,5.146 L26.580,5.146 L26.580,-0.010 L16.417,-0.010 L16.417,5.146 L10.518,5.146 L10.518,-0.010 L0.356,-0.010 L0.356,5.146 L0.356,10.299 L0.356,14.953 L42.641,14.953 L42.641,10.299 L42.641,5.146 L42.641,-0.010 L32.479,-0.010 ZM37.778,50.136 L37.778,17.267 L5.219,17.267 L5.219,50.136 L-0.015,50.136 L-0.015,60.019 L43.012,60.019 L43.012,50.136 L37.778,50.136 ZM9.416,20.276 L14.721,20.276 L14.721,50.136 L9.416,50.136 L9.416,20.276 Z" class="cls-1"/>
</svg>
