<svg xmlns="http://www.w3.org/2000/svg" xmlns:xlink="http://www.w3.org/1999/xlink" preserveAspectRatio="xMidYMid" width="45" height="60" viewBox="0 0 45 60">
  <defs>
    <style>
      .cls-1 {
        fill: #edb841;
        fill-rule: evenodd;
      }
    </style>
  </defs>
  <path d="M26.695,47.700 L21.300,47.700 L21.300,24.255 C21.300,23.583 20.769,23.038 20.112,23.038 L7.776,23.038 C7.120,23.038 6.589,23.583 6.589,24.255 L6.589,47.700 L1.196,47.700 C0.686,47.700 0.232,48.037 0.070,48.531 C-0.092,49.027 0.073,49.572 0.479,49.888 L13.230,59.751 C13.442,59.915 13.693,59.998 13.947,59.998 C14.200,59.998 14.452,59.915 14.664,59.751 L27.413,49.888 C27.819,49.572 27.984,49.027 27.822,48.531 C27.658,48.037 27.207,47.700 26.695,47.700 ZM13.947,57.258 L4.737,50.135 L7.776,50.135 C8.432,50.135 8.964,49.591 8.964,48.918 L8.964,25.473 L18.925,25.473 L18.925,48.918 C18.925,49.591 19.457,50.135 20.112,50.135 L23.152,50.135 L13.947,57.258 ZM44.931,20.875 C44.769,21.371 44.316,21.706 43.805,21.706 L38.411,21.706 L38.411,45.148 C38.411,45.820 37.881,46.364 37.223,46.364 L24.889,46.364 C24.231,46.364 23.699,45.820 23.699,45.148 L23.699,21.706 L18.308,21.706 C17.798,21.706 17.344,21.371 17.182,20.875 C17.019,20.379 17.184,19.835 17.591,19.518 L30.340,9.653 C30.764,9.326 31.348,9.326 31.773,9.653 L44.523,19.518 C44.929,19.836 45.093,20.382 44.931,20.875 ZM29.868,6.225 L29.868,1.222 C29.868,0.550 30.400,0.005 31.056,0.005 C31.713,0.005 32.245,0.550 32.245,1.222 L32.245,6.225 C32.245,6.897 31.713,7.441 31.056,7.441 C30.400,7.441 29.868,6.897 29.868,6.225 ZM35.365,9.749 C34.926,9.248 34.966,8.480 35.451,8.031 L39.282,4.493 C39.772,4.040 40.523,4.083 40.960,4.579 C41.402,5.079 41.361,5.847 40.877,6.296 L37.047,9.834 C36.820,10.045 36.536,10.148 36.252,10.148 C35.926,10.148 35.602,10.015 35.365,9.749 ZM21.238,6.296 C20.750,5.847 20.712,5.079 21.152,4.579 C21.592,4.081 22.342,4.040 22.830,4.493 L26.661,8.030 C27.149,8.480 27.187,9.248 26.745,9.748 C26.510,10.013 26.187,10.149 25.865,10.149 C25.581,10.149 25.297,10.046 25.070,9.835 L21.238,6.296 Z" class="cls-1"/>
</svg>
