<svg xmlns="http://www.w3.org/2000/svg" xmlns:xlink="http://www.w3.org/1999/xlink" preserveAspectRatio="xMidYMid" width="60.06" height="60.062" viewBox="0 0 60.06 60.062">
  <defs>
    <style>
      .cls-1 {
        fill: #edb841;
        fill-rule: evenodd;
      }
    </style>
  </defs>
  <path d="M60.049,37.192 L60.049,22.864 L55.633,22.864 C55.053,20.789 54.242,18.816 53.202,16.983 L56.321,13.865 L46.190,3.733 L43.072,6.850 C41.237,5.814 39.266,5.002 37.191,4.421 L37.191,0.006 L22.862,0.006 L22.862,4.421 C20.789,5.000 18.817,5.814 16.982,6.850 L13.864,3.733 L3.732,13.865 L6.849,16.983 C5.813,18.818 5.001,20.789 4.422,22.864 L0.005,22.864 L0.005,37.192 L4.422,37.192 C5.001,39.267 5.813,41.238 6.849,43.073 L3.732,46.191 L13.864,56.320 L16.982,53.205 C18.817,54.241 20.789,55.054 22.862,55.632 L22.862,60.050 L37.191,60.050 L37.191,55.632 C39.266,55.054 41.237,54.241 43.072,53.205 L46.190,56.320 L56.321,46.191 L53.202,43.073 C54.240,41.238 55.053,39.267 55.633,37.192 L60.049,37.192 ZM30.027,13.052 C34.624,13.052 38.346,15.834 38.346,21.078 C38.346,26.325 34.622,32.043 30.027,32.043 C25.431,32.043 21.708,26.325 21.708,21.078 C21.708,15.834 25.429,13.052 30.027,13.052 ZM46.132,41.226 C42.564,46.283 36.687,49.593 30.027,49.593 C23.366,49.593 17.489,46.283 13.921,41.226 L13.921,40.704 C13.921,38.473 15.845,35.727 18.196,34.611 L23.425,32.126 L27.054,39.690 L28.913,34.651 C29.277,34.719 29.644,34.813 30.025,34.813 C30.405,34.813 30.767,34.719 31.136,34.651 L32.901,39.447 L36.455,32.043 L41.852,34.613 C44.203,35.729 46.130,38.473 46.130,40.708 L46.132,41.226 L46.132,41.226 Z" class="cls-1"/>
</svg>
