<svg width="33" height="24" viewBox="0 0 33 24" fill="none" xmlns="http://www.w3.org/2000/svg">
<path fill-rule="evenodd" clip-rule="evenodd" d="M0.416016 2C0.416016 0.89543 1.31145 0 2.41602 0H30.416C31.5206 0 32.416 0.89543 32.416 2C32.416 3.10457 31.5206 4 30.416 4H2.41602C1.31145 4 0.416016 3.10457 0.416016 2ZM0.416016 12C0.416016 10.8954 1.31145 10 2.41602 10H30.416C31.5206 10 32.416 10.8954 32.416 12C32.416 13.1046 31.5206 14 30.416 14H2.41602C1.31145 14 0.416016 13.1046 0.416016 12ZM0.416016 22C0.416016 20.8954 1.31145 20 2.41602 20H30.416C31.5206 20 32.416 20.8954 32.416 22C32.416 23.1046 31.5206 24 30.416 24H2.41602C1.31145 24 0.416016 23.1046 0.416016 22Z" fill="#999999"/>
</svg>
