<?xml version="1.0" encoding="iso-8859-1"?>
<!-- Generator: Adobe Illustrator 19.0.0, SVG Export Plug-In . SVG Version: 6.00 Build 0)  -->
<svg version="1.1" id="Capa_1" xmlns="http://www.w3.org/2000/svg" xmlns:xlink="http://www.w3.org/1999/xlink" x="0px" y="0px"
	 viewBox="0 0 474.492 474.492" style="enable-background:new 0 0 474.492 474.492;" xml:space="preserve">
<g>
	<g>
		<g>
			<path d="M269.932,410.298c-17.731,0-32.14,14.409-32.14,32.184c0,17.645,14.409,32.011,32.14,32.011
				c17.71,0,32.097-14.366,32.097-32.011C302.029,424.707,287.641,410.298,269.932,410.298z"/>
			<path d="M94.755,410.298c-17.753,0-32.14,14.409-32.14,32.184c0,17.645,14.388,32.011,32.14,32.011
				c17.731,0,32.097-14.366,32.097-32.011C126.853,424.707,112.486,410.298,94.755,410.298z"/>
			<path d="M441.074,94.545c-2.847-7.485-11.238-11.26-18.702-8.456l-76.274,28.797c-4.185,1.596-7.442,5.004-8.758,9.297
				l-11.325,36.455H56.251c-3.559-3.041-8.413-4.508-13.244-3.149c-7.744,2.265-12.187,10.311-9.966,18.076l41.804,145.43
				c1.769,6.212,7.507,10.527,13.956,10.527h184.258c-4.012,13.741-9.103,31.364-11.562,39.992c-19.327,0-174.508,0-174.508,0
				c-8.003,0-14.539,6.493-14.539,14.539c0,8.089,6.536,14.603,14.539,14.603h185.444c6.493,0,12.123-4.271,13.956-10.483
				l20.018-69.113c1.143-3.602,52.676-168.942,56.559-181.367c11.109-4.185,69.652-26.295,69.652-26.295
				c5.803-2.243,9.405-7.744,9.405-13.633C442.023,98.018,441.721,96.27,441.074,94.545z M281.731,302.444H99.781
				c-1.23-4.12-3.883-13.568-7.312-25.432h197.178L281.731,302.444z M296.981,253.565H85.76c-2.179-7.507-4.379-15.229-6.601-22.93
				h224.983L296.981,253.565z M311.477,207.123H72.365c-2.481-8.715-4.724-16.545-6.579-22.994h252.853L311.477,207.123z"/>
			<polygon points="281.148,65.489 234.577,65.489 234.577,0 161.452,0 161.452,65.489 114.924,65.489 198.058,148.644 			"/>
		</g>
	</g>
	<g>
	</g>
	<g>
	</g>
	<g>
	</g>
	<g>
	</g>
	<g>
	</g>
	<g>
	</g>
	<g>
	</g>
	<g>
	</g>
	<g>
	</g>
	<g>
	</g>
	<g>
	</g>
	<g>
	</g>
	<g>
	</g>
	<g>
	</g>
	<g>
	</g>
</g>
<g>
</g>
<g>
</g>
<g>
</g>
<g>
</g>
<g>
</g>
<g>
</g>
<g>
</g>
<g>
</g>
<g>
</g>
<g>
</g>
<g>
</g>
<g>
</g>
<g>
</g>
<g>
</g>
<g>
</g>
</svg>
